<svg t="1622917198255" class="icon" viewBox="0 0 1024 1024" version="1.1" xmlns="http://www.w3.org/2000/svg"
  p-id="10116" width="200" height="200">
  <path
    d="M936.16 800h-116.352a368.864 368.864 0 0 0-56.32-64H768a32 32 0 1 0 0-64h-103.872a376 376 0 0 0-86.976-26.368C576.8 643.744 576 641.984 576 640a32 32 0 0 1 32-32h256a32 32 0 1 0 0-64h-224a32 32 0 1 1 0-64h128a32 32 0 1 0 0-64H448c-32 0-32-32-32-32s0-32 32-32h96a32 32 0 1 0 0-64H192a32 32 0 0 0 0 64h64a32 32 0 0 1 0 64H96a32 32 0 0 0 0 64h96a32 32 0 0 1 0 64H160a32 32 0 1 0 0 64h192a32 32 0 1 1 0 64H32a32 32 0 1 0 0 64h228.544a368.864 368.864 0 0 0-56.32 64H128a32 32 0 1 0 0 64h40.16a360.768 360.768 0 0 0-20.864 64c-0.992 4.352-2.208 8.64-3.04 13.056a16 16 0 0 0 31.456 5.888c1.216-6.432 2.976-12.64 4.544-18.944 5.568-22.368 13.312-43.776 23.104-64a337.472 337.472 0 0 1 108.128-128c56.736-40.352 126.176-64 200.512-64 74.368 0 143.808 23.648 200.544 64a337.472 337.472 0 0 1 108.128 128c9.792 20.224 17.504 41.632 23.104 64 1.568 6.304 3.328 12.512 4.544 18.944a16 16 0 0 0 31.424-5.888c-0.832-4.416-2.048-8.704-3.008-13.056a360.672 360.672 0 0 0-20.832-64h80.32a32 32 0 1 0-0.064-64z"
    p-id="10117" fill="#707070"></path>
  <path
    d="M992 672h-128a32 32 0 1 0 0 64h128a32 32 0 1 0 0-64zM339.104 749.632c-10.464 0-21.44 2.72-31.776 7.872-28.288 14.08-42.272 41.504-31.872 62.432 6.272 12.576 20.16 20.064 37.216 20.064 10.464 0 21.44-2.72 31.776-7.872 12.352-6.144 22.56-15.2 28.768-25.504 7.456-12.416 8.608-25.856 3.104-36.896-6.24-12.608-20.16-20.096-37.216-20.096z m20.416 48.736a53.824 53.824 0 0 1-22.176 19.456 55.968 55.968 0 0 1-24.672 6.208c-10.848 0-19.424-4.192-22.912-11.2-6.304-12.672 4.768-31.072 24.672-40.96 8.128-4.064 16.672-6.208 24.672-6.208 10.848 0 19.424 4.192 22.912 11.2 3.008 6.016 2.112 13.856-2.496 21.504zM800 896c-17.632 0-32 14.368-32 32 0 5.952 2.08 11.232 4.928 16 5.568 9.376 15.392 16 27.072 16s21.504-6.624 27.072-16A31.008 31.008 0 0 0 832 928c0-17.632-14.368-32-32-32z m0 48a16 16 0 1 1 0-32 16 16 0 0 1 0 32zM576 832c-21.664 0-40.8 10.88-52.384 27.424-7.264 10.4-11.616 22.976-11.616 36.576s4.352 26.176 11.616 36.576c11.584 16.544 30.72 27.424 52.384 27.424s40.8-10.88 52.384-27.424c7.264-10.4 11.616-22.976 11.616-36.576s-4.352-26.176-11.616-36.576A63.904 63.904 0 0 0 576 832z m25.984 100.576c-7.488 5.344-16.128 9.152-25.984 9.152s-18.528-3.808-25.984-9.152c-11.616-8.288-19.712-21.216-19.712-36.576s8.096-28.288 19.712-36.576c7.488-5.344 16.128-9.152 25.984-9.152s18.528 3.808 26.016 9.152c11.616 8.288 19.712 21.216 19.712 36.576s-8.096 28.288-19.744 36.576zM544 736c12.256 0 22.592-3.136 29.792-8 6.208-4.192 10.208-9.664 10.208-16 0-13.696-17.184-24-40-24-22.784 0-40 10.304-40 24 0 6.336 3.968 11.808 10.208 16 7.2 4.864 17.536 8 29.792 8z m0-32c15.808 0 23.68 6.048 24.032 7.68 0 0-0.512 1.248-3.2 3.04-4.928 3.36-12.512 5.28-20.832 5.28-8.288 0-15.904-1.92-20.832-5.248-2.368-1.6-3.072-2.752-3.136-2.784 0.448-1.984 8.32-7.968 23.968-7.968zM141.504 157.344a16.64 16.64 0 0 0 5.664-1.088c2.048-0.736 5.312-1.44 9.792-2.176l6.432-0.768c1.952-0.224 3.744-0.32 5.344-0.32h14.592c1.312 0 2.176 0.32 2.624 0.992 0.416 0.672 0.64 1.856 0.64 3.584 0 20.768-0.16 31.872-0.416 33.312-0.128 1.024-1.6 1.536-4.352 1.536h-6.272a134.56 134.56 0 0 1-13.184-0.768 24.448 24.448 0 0 1-6.432-1.408c-1.312-0.576-2.112-1.248-2.368-2.08-0.32-0.768-0.608-1.632-0.896-2.496 0-1.312 0.224-2.944 0.672-4.896a26.016 26.016 0 0 0 0.64-5.344c0-5.376-0.992-9.216-2.912-11.552a8.832 8.832 0 0 0-6.88-3.456c-1.728 0-3.2 0.768-4.352 2.272a10.432 10.432 0 0 0-1.952 5.984l-0.32 8.704a45.184 45.184 0 0 1-0.576 6.112 17.536 17.536 0 0 1-3.904 9.376 14.4 14.4 0 0 0-3.488 9.152c0 3.04 1.152 6.176 3.488 9.376a11.008 11.008 0 0 0 9.152 4.992c2.176 0 5.792-0.864 10.88-2.624 4.96-1.888 89.216 0.256 92 1.632a16.928 16.928 0 0 0 7.424 2.08c4.928 0 8.64-1.664 11.104-4.992a16.704 16.704 0 0 0 3.904-9.6 11.072 11.072 0 0 0-3.488-8.064 11.328 11.328 0 0 1-2.4-3.808 16.416 16.416 0 0 1-0.864-4.256 79.168 79.168 0 0 1-0.352-5.312 243.2 243.2 0 0 0-0.32-6.88c-0.16-2.592-0.288-4.672-0.448-6.208a18.56 18.56 0 0 0-0.416-2.944 5.344 5.344 0 0 0-1.856-2.4 10.272 10.272 0 0 0-7.296-1.952 5.856 5.856 0 0 0-3.488 1.728 6.272 6.272 0 0 0-1.952 3.936v3.584c0 1.664-0.064 3.904-0.224 6.656l-0.224 10.464c-0.16 2.464-0.96 4.128-2.4 5.024-1.44 0.832-4.416 1.28-8.928 1.28l-18.88-0.448c-2.496 0-3.776-0.736-3.904-2.176a36.896 36.896 0 0 1-0.224-5.536v-12.096-12.416c0-3.04 0.064-4.928 0.224-5.664 0.128-1.728 1.664-2.592 4.576-2.592h6.976c14.944 0 25.632 1.536 32 4.576a12.576 12.576 0 0 0 4.576 1.056 11.36 11.36 0 0 0 9.152-4.576c2.464-3.328 3.68-6.08 3.68-8.256a9.024 9.024 0 0 0-3.04-6.528 10.624 10.624 0 0 1-3.04-7.84c0-3.2 0.064-6.24 0.224-9.152l0.448-7.424a8.544 8.544 0 0 0-3.168-6.528 10.368 10.368 0 0 0-7.072-2.816c-5.216 0-7.84 2.464-7.84 7.424l0.224 12.64c0 4.8-0.128 7.936-0.416 9.472a4.992 4.992 0 0 1-2.208 3.328 9.28 9.28 0 0 1-4.928 1.088 188.64 188.64 0 0 1-13.728-0.544 186.944 186.944 0 0 0-6.176-0.096 30.592 30.592 0 0 1-8.288-0.64c-1.152-0.448-1.728-1.76-1.728-3.936l1.312-30.912a8.544 8.544 0 0 0-1.216-4.128 16.416 16.416 0 0 0-7.616-6.752 12.576 12.576 0 0 0-5.12-1.088c-7.68 0-11.552 5.312-11.552 15.904l0.416 28.512c0 2.176-1.312 3.264-3.904 3.264H175.04c-2.048 0-3.552 0.064-4.576 0.224a26.336 26.336 0 0 1-3.264 0.192h-4.16a17.92 17.92 0 0 1-7.04-1.088 8.48 8.48 0 0 1-4.032-3.456 10.816 10.816 0 0 1-1.312-4.576c0-1.312 0.224-2.976 0.672-4.992 0.416-2.048 0.64-4.608 0.64-7.744a20.064 20.064 0 0 0-1.536-8.16c-0.864-2.496-3.04-3.712-6.528-3.712-3.2 0-5.376 0.576-6.528 1.728-1.024 1.024-1.6 4-1.728 8.928 0 4.928-0.224 8.576-0.64 10.88a23.68 23.68 0 0 1-3.968 8.512 18.56 18.56 0 0 0-3.04 9.568c0 2.912 1.28 5.664 3.808 8.288a12.896 12.896 0 0 0 9.696 3.904zM319.424 138.848c4.224 0 10.528-2.112 18.944-6.336 8.128-4.064 12.576-6.464 13.28-7.168 1.44-1.312 3.84-1.952 7.168-1.952l4.16-0.096 11.104-0.32c9.856-0.448 15.392-1.248 16.544-2.4a6.272 6.272 0 0 0 1.952-4.576c0-1.44-0.32-2.432-0.96-2.944-0.672-0.512-2.656-0.896-5.984-1.184a63.744 63.744 0 0 0-8.064-0.672l-4.8 0.224c-1.44 0-2.176-0.256-2.176-0.768s0.288-1.184 0.864-2.048a16.128 16.128 0 0 0 4.032-7.616 8.608 8.608 0 0 0-0.96-5.984 9.44 9.44 0 0 0-4.128-3.712 12.48 12.48 0 0 0-5.216-1.184c-2.336 0-5.952 3.04-10.912 9.152-5.088 6.24-11.84 11.84-20.256 16.768a88.896 88.896 0 0 1-12.416 6.112c-4.064 1.6-8.128 2.752-12.192 3.488-2.176 0.352-3.264 1.76-3.264 4.064 0 6.112 4.416 9.152 13.28 9.152z"
    p-id="10118" fill="#707070"></path>
  <path
    d="M349.28 179.584a41.472 41.472 0 0 1-2.624 11.968 22.624 22.624 0 0 1-2.272 3.936 174.08 174.08 0 0 1-2.848 3.904 29.088 29.088 0 0 0-2.4 4.032 9.952 9.952 0 0 0-0.96 4.256c0 2.912 1.376 5.6 4.128 8.064a14.56 14.56 0 0 0 10.048 3.712c1.6 0 3.264-0.224 4.992-0.672 1.76-0.448 5.728-2.688 11.968-6.752 3.2-2.048 5.952-3.904 8.288-5.568 2.336-1.664 4.288-3.232 5.888-4.672 4.512-4.064 7.68-7.808 9.6-11.2a18.24 18.24 0 0 0 2.816-7.744c0-0.992-0.288-1.6-0.864-1.728-0.576-0.128-1.6 0.064-3.04 0.64a197.504 197.504 0 0 0-5.664 2.4 170.368 170.368 0 0 1-14.272 5.344 11.52 11.52 0 0 1-2.848 0.544c-0.672 0-1.088-0.16-1.312-0.544a5.376 5.376 0 0 1-0.544-1.888 20.192 20.192 0 0 1-0.224-3.488v-5.216c0-7.552 0.128-11.616 0.448-12.192 0.128-0.576 0.8-0.864 1.952-0.864h10.464c4.064 0 6.88-0.544 8.48-1.632 1.6-1.088 2.4-2.784 2.4-5.12 0-2.464-1.344-4.032-4.032-4.672a80.736 80.736 0 0 0-16-0.992c-1.44 0-2.176-0.64-2.176-1.952l0.224-2.816a10.72 10.72 0 0 1 0.64-3.488c0.288-0.576 0.896-0.864 1.76-0.864h4.352c3.648 0 6.016-0.384 7.2-1.184 1.152-0.8 1.728-2.208 1.728-4.256 0-2.016-0.448-3.296-1.408-3.808a33.92 33.92 0 0 0-8.384-1.632 103.04 103.04 0 0 0-12.608-0.864 27.712 27.712 0 0 0-7.616 0.672 15.52 15.52 0 0 1-3.712 0.416 26.464 26.464 0 0 1-5.024-0.64 7.136 7.136 0 0 0-3.808 0.64 12.544 12.544 0 0 0-5.888 5.664 8.096 8.096 0 0 0-0.96 3.488c0 2.048 1.44 3.04 4.352 3.04a20.864 20.864 0 0 0 4.672-0.448 102.4 102.4 0 0 0 3.808-0.864c1.6-0.288 2.4 0.512 2.4 2.4v4.352c0 1.44-0.736 2.176-2.176 2.176-2.336 0-4.352 0.064-6.112 0.224l-4.896 0.448a42.88 42.88 0 0 1-4.48 0.224 29.792 29.792 0 0 1-4.8-0.416 6.016 6.016 0 0 0-3.584 0.224 13.568 13.568 0 0 0-3.488 1.856 9.376 9.376 0 0 0-2.752 2.848 7.04 7.04 0 0 0-1.088 3.712c0 2.336 0.608 4.064 1.856 5.216a6.08 6.08 0 0 0 4.256 1.728c1.728 0 3.744-0.32 5.984-0.96 2.24-0.64 5.792-1.216 10.56-1.632 2.464-0.128 4.384-0.32 5.792-0.544a9.056 9.056 0 0 1 3.168-0.096c0.736 0.128 1.152 0.384 1.28 0.768 0.16 0.352 0.224 0.96 0.224 1.856 0 0.864-0.064 2.176-0.224 3.936l-0.64 6.72zM409.056 219.328a7.36 7.36 0 0 0 5.536 2.72 13.504 13.504 0 0 0 6.112-1.536 30.56 30.56 0 0 1 3.904-1.76 12.544 12.544 0 0 1 2.528-0.448 207.872 207.872 0 0 1 32.128-0.448c2.176 0.16 5.664 1.952 10.464 5.44 0.576 0.48 1.28 0.704 2.176 0.704a8.096 8.096 0 0 0 4.128-1.312 13.024 13.024 0 0 0 3.808-3.584 20.576 20.576 0 0 0 3.808-12.096V187.2l0.448-4.032c0.128-1.536 0.352-3.072 0.672-4.672 0.288-1.6 0.48-3.04 0.64-4.352 0.128-1.312 0.224-2.4 0.224-3.264a18.464 18.464 0 0 0-1.088-6.656 12.064 12.064 0 0 0-2.816-4.352 11.072 11.072 0 0 0-7.2-2.944 10.784 10.784 0 0 0-5.664 1.728 8.96 8.96 0 0 1-4.896 1.536 23.968 23.968 0 0 1-6.656-1.312c-2.464-1.024-8.256-1.536-17.408-1.536l-17.408 0.448c-0.576 0-1.248-0.352-2.048-1.088-0.8-0.736-2.272-1.088-4.48-1.088-4.96 0-8.128 1.76-9.6 5.216a22.496 22.496 0 0 0-2.4 9.152c0 0.736 0.512 3.712 1.536 8.928 0.992 5.216 1.536 11.68 1.536 19.392l-0.448 13.504a10.56 10.56 0 0 0 2.464 7.52z m13.824-43.68a16.16 16.16 0 0 0 0.32-3.808c-0.064-0.928 0.192-1.568 0.768-1.856a13.568 13.568 0 0 1 3.168-0.32l6.304-0.32c2.4-0.128 4.864-0.256 7.424-0.32 2.528-0.064 4.832-0.128 6.848-0.128 10.016 0 15.584 0.384 16.768 1.088 1.024 0.576 1.536 2.464 1.536 5.664 0 3.04-0.384 4.736-1.088 5.024a64 64 0 0 1-10.688 0.448 421.344 421.344 0 0 1-19.168-0.448 97.472 97.472 0 0 1-11.744-1.088c-0.448-0.128-0.64-0.64-0.64-1.536l0.192-2.4z m0.224 17.216c0.736-0.576 3.648-0.96 8.736-1.088 5.376-0.448 10.752-0.64 16.096-0.64 4.512 0 8.032 0.032 10.56 0.128 2.528 0.064 4.16 0.192 4.896 0.32 1.28 0.288 1.952 1.024 1.952 2.176 0 4.512-0.416 7.328-1.184 8.512-0.832 1.152-2.368 1.728-4.704 1.728l-34.4 0.224c-0.736 0-1.216-0.192-1.408-0.544a16.672 16.672 0 0 1-0.96-3.584l-0.352-2.944a26.048 26.048 0 0 1-0.096-2.048c0-1.376 0.288-2.112 0.864-2.24z"
    p-id="10119" fill="#707070"></path>
  <path
    d="M398.048 125.984a18.24 18.24 0 0 0 3.808-0.864c1.984-0.576 4.768-1.024 8.384-1.312 3.648-0.448 5.92-0.64 6.848-0.64 0.96 0 1.408 0.736 1.408 2.176l-0.192 9.376c0 0.736-0.224 1.248-0.64 1.536a7.648 7.648 0 0 1-3.264 1.216l-1.088 0.128a14.528 14.528 0 0 1-4.128 0.32 54.976 54.976 0 0 1-7.52-0.864 12.064 12.064 0 0 0-1.632-0.32c-2.624 0-5.152 1.664-7.616 4.992-2.496 3.36-3.712 6.24-3.712 8.736 0 3.328 1.728 4.992 5.216 4.992 1.6 0 3.04-0.288 4.352-0.864 9.152-3.776 22.304-5.664 39.424-5.664 19.872 0 36.128 2.336 48.768 6.976 4.352 1.6 8.192 2.4 11.552 2.4a17.44 17.44 0 0 0 15.232-7.392c3.488-4.928 5.216-8.768 5.216-11.552 0-1.44-1.28-2.176-3.904-2.176a467.2 467.2 0 0 1-22.432-0.896l-17.856-1.088a8.992 8.992 0 0 1-3.808-0.544c-0.672-0.352-0.992-0.992-0.992-1.856v-7.68c0-1.44 0.736-2.176 2.176-2.176l16.544 0.224c4.224 0 6.88-0.416 8.064-1.216 1.184-0.8 1.728-2.272 1.728-4.448 0-2.048-0.672-3.424-1.952-4.128-1.312-0.864-4.352-1.376-9.152-1.536a164.48 164.48 0 0 0-14.368-0.672c-1.44 0-2.176-0.8-2.176-2.4v-3.232c0-6.816-1.536-11.328-4.576-13.504-2.912-2.336-5.536-3.488-7.84-3.488-2.016 0-3.68 0.992-4.896 2.944a13.984 13.984 0 0 0-1.824 7.52l0.448 9.568c0 1.6-0.736 2.4-2.176 2.4l-9.792-0.224c-1.44 0-2.176-0.8-2.176-2.4v-4.128a10.56 10.56 0 0 0-3.488-8.704 18.976 18.976 0 0 0-10.016-4.8c-3.904 0-5.856 3.616-5.856 10.88l0.224 6.976c0 0.864-0.256 1.472-0.768 1.856s-1.056 0.576-1.632 0.64a23.04 23.04 0 0 1-2.4 0.096c-1.6 1.024-2.976 1.504-4.16 1.408-1.184-0.064-2.272-0.192-3.36-0.32a9.504 9.504 0 0 0-3.392 0.224 11.584 11.584 0 0 0-4.352 2.848 9.792 9.792 0 0 0-3.264 6.976c-0.032 2.464 0.992 3.68 3.008 3.68z m38.336-1.088c0-0.992 0.256-1.632 0.768-1.856a28.576 28.576 0 0 1 6.208-0.32c3.776 0 6.08 0.064 6.976 0.224 0.864 0.128 1.312 0.8 1.312 1.952v7.616c0 1.44-0.736 2.176-2.176 2.176l-10.88 0.448c-1.6 0-2.4-0.736-2.4-2.176l0.192-8.064zM675.008 139.712c2.048 0 4.16-0.576 6.336-1.728a20.992 20.992 0 0 1 7.84-2.624 59.52 59.52 0 0 1 6.976-0.672l11.552-0.448c9.28-0.448 17.856-0.672 25.696-0.672 3.744 0 6.848-0.032 9.248-0.096 2.4-0.064 3.936-0.192 4.672-0.32a7.872 7.872 0 0 0 4.032-2.624 6.912 6.912 0 0 0 1.632-4.576c0-3.616-4.864-5.44-14.592-5.44h-10.88a21.12 21.12 0 0 1-5.024-0.32c-0.416-0.224-0.64-0.896-0.64-2.08l0.448-13.28a7.36 7.36 0 0 0-1.216-4.032 12.576 12.576 0 0 0-2.944-3.168 15.168 15.168 0 0 0-3.808-2.08 10.88 10.88 0 0 0-3.808-0.768 8.128 8.128 0 0 0-5.664 1.952 10.592 10.592 0 0 0-3.04 4.352c-0.576 1.76-0.96 4.64-1.088 8.704-0.288 4.224-0.48 7.04-0.64 8.512-0.288 1.44-0.576 2.336-0.896 2.624-0.288 0.288-0.992 0.448-2.176 0.448h-13.056a10.24 10.24 0 0 0-3.712 0.544 10.848 10.848 0 0 0-3.488 3.392 25.216 25.216 0 0 0-3.488 5.44 12.64 12.64 0 0 0-1.312 5.216c0 2.528 1.024 3.744 3.04 3.744zM732.288 184.576c-2.912 0-4.608-0.224-5.12-0.672-0.512-0.448-0.32-1.792 0.544-4.128 5.664-15.68 8.48-26.496 8.48-32.448a5.76 5.76 0 0 0-0.96-3.36 8.16 8.16 0 0 0-2.496-2.304 16.448 16.448 0 0 0-3.04-1.312 10.688 10.688 0 0 0-2.848-0.448c-3.904 0-6.08 2.56-6.528 7.616a258.72 258.72 0 0 1-3.264 20.704c-1.44 9.28-2.464 14.304-3.04 15.04-0.288 0.736-1.088 1.088-2.4 1.088l-7.84 0.224c-1.28 0-2.176-0.736-2.592-2.176a599.936 599.936 0 0 1-2.848-27.648 22.56 22.56 0 0 0-1.312-6.976c-0.576-1.152-1.728-2.112-3.488-2.848a13.28 13.28 0 0 0-5.984-1.312 7.36 7.36 0 0 0-5.792 2.816c-1.6 1.76-2.4 3.264-2.4 4.576 0 1.312 0.224 2.752 0.672 4.352l1.536 4.352c0.736 2.176 1.664 5.152 2.848 8.928l4.128 12.864c0.736 2.048 0.736 3.328 0 3.904a35.616 35.616 0 0 1-5.248 0.864l-3.904 0.32c-0.992 0.064-1.888 0.128-2.592 0.128a15.328 15.328 0 0 1-4.16-0.64 16.096 16.096 0 0 0-4.8-0.672c-1.728 0-4.288 1.888-7.616 5.664a18.016 18.016 0 0 0-5.024 12.192c0 2.624 1.088 3.936 3.264 3.936a25.248 25.248 0 0 0 9.6-3.04 80.64 80.64 0 0 1 6.528-2.72 50.336 50.336 0 0 1 15.36-3.264c3.104-0.224 6.72-0.32 10.784-0.32 13.504 0 24.32 2.176 32.448 6.528 3.904 2.048 7.2 3.296 9.792 3.808a17.152 17.152 0 0 0 6.848 0.128 14.24 14.24 0 0 0 5.216-2.272c1.536-1.088 3.072-2.144 4.672-3.168a20 20 0 0 0 5.888-7.616 23.296 23.296 0 0 0 2.4-6.752c0-1.312-0.928-2.016-2.816-2.176a95.776 95.776 0 0 0-16.352-1.088 496.48 496.48 0 0 0-16.544-0.672z"
    p-id="10120" fill="#707070"></path>
  <path
    d="M581.184 188.128c13.44 0 25.056-7.424 31.328-18.304 0 5.024 1.728 7.584 5.216 7.584 1.888 0 5.152-0.864 9.792-2.624 4.64-1.888 7.328-2.816 8.032-2.816 0.576 0 0.864 0.576 0.864 1.728 0 5.376-1.92 13.568-3.168 15.84a11.456 11.456 0 0 1-4.896 4.896 16.896 16.896 0 0 1-7.616 1.536c-4.224 0-8.704-0.64-13.504-1.952a47.68 47.68 0 0 0-9.376-1.984c-1.28 0-1.952 0.576-1.952 1.76 0 2.176 3.2 6.016 9.6 11.552 6.24 5.376 13.792 8.064 22.624 8.064 13.376 0 21.568-3.616 24.416-11.744 4.736-13.632 1.952-34.88 1.952-34.88 0-1.76 0.544-2.912 1.632-3.488 1.088-0.576 2.944-1.44 5.568-2.624 2.752-1.152 4.672-2.112 5.76-2.848a9.152 9.152 0 0 0 2.72-2.816c1.6-2.176 1.888-3.584 0.864-4.256-0.96-0.672-3.872-0.576-8.64 0.288l-4.704 0.672a4.8 4.8 0 0 1-2.272-0.096c-0.416-0.224-0.64-0.608-0.64-1.184v-2.848l0.096-3.584a153.088 153.088 0 0 1 0.544-7.392 15.68 15.68 0 0 0 0.224-1.632c0.288-0.288 0.864-0.448 1.728-0.448h6.752c1.728 0.288 3.2 0.224 4.352-0.224a6.144 6.144 0 0 0 2.72-1.952 7.616 7.616 0 0 0 1.408-2.944 12.384 12.384 0 0 0 0.448-3.168c0-2.464-1.888-3.936-5.664-4.352a55.872 55.872 0 0 0-9.568-0.896c-1.312 0-1.952-0.576-1.952-1.76l0.64-17.408a10.88 10.88 0 0 0-0.768-6.304 8 8 0 0 0-3.264-3.264 12.032 12.032 0 0 0-4.576-1.312 39.808 39.808 0 0 1-4.704-0.64c-5.088 0-7.616 2.816-7.616 8.48l0.096 1.952 0.352 5.216 0.32 5.888 0.096 4.352c0 2.464-0.416 4-1.28 4.576-0.736 0.448-2.08 0.64-4.032 0.64s-3.36-0.352-4.224-1.088a4 4 0 0 0-2.848-1.312c-2.912 0-9.44-0.032-10.848 6.496-2.144 9.888 4.096 11.808 4.096 11.808a18.752 18.752 0 0 0 5.024-1.408c2.464-0.928 5.312-1.408 8.48-1.408s5.024 0.224 5.44 0.672c0.448 0.448 0.672 1.376 0.672 2.848 0 9.856-0.224 15.456-0.672 16.768-0.416 1.44-6.304 3.328-17.632 5.664a6.176 6.176 0 0 0-2.592 1.056c0.864-3.072 1.472-6.272 1.472-9.632a36.32 36.32 0 0 0-72.576 0 36.288 36.288 0 0 0 36.256 36.256z m0-54.464a18.176 18.176 0 1 1-0.064 36.352 18.176 18.176 0 0 1 0.064-36.352zM816.672 203.456a16 16 0 0 0 19.936 19.872c6.112-1.856 13.472-3.584 16.832-4.032 8.8 3.136 17.76 4.704 26.56 4.704A80 80 0 1 0 800 143.872c0 18.816 6.528 36.768 18.496 51.104a62.4 62.4 0 0 1-1.824 8.48zM872 96a8 8 0 0 1 16 0v64a8 8 0 0 1-16 0V96z m8 80a8 8 0 1 1 0 16 8 8 0 0 1 0-16z"
    p-id="10121" fill="#707070"></path>
</svg>