<svg height="200" viewBox="0 0 1024 1024" width="200" xmlns="http://www.w3.org/2000/svg"><path d="m204.8 122.88h614.4a81.92 81.92 0 0 1 81.92 81.92v491.52c0 113.11104-91.68896 204.8-204.8 204.8h-368.64c-113.11104 0-204.8-91.68896-204.8-204.8v-491.52a81.92 81.92 0 0 1 81.92-81.92zm122.88 655.36a81.92 81.92 0 1 0 0-163.84 81.92 81.92 0 0 0 0 163.84zm450.56-40.96c0-271.4624-220.0576-491.52-491.52-491.52a40.96 40.96 0 1 0 0 81.92c226.22208 0 409.6 183.37792 409.6 409.6a40.96 40.96 0 1 0 81.92 0zm-184.32 0c0-169.65632-137.54368-307.2-307.2-307.2a40.96 40.96 0 1 0 0 81.92c124.416 0 225.28 100.864 225.28 225.28a40.96 40.96 0 1 0 81.92 0z" fill="#707077"/></svg>