<svg height="41" viewBox="0 0 43 41" width="43" xmlns="http://www.w3.org/2000/svg"><g fill="#07c160"><path d="m39.7 15.3c-3.7-4.9-10.2-6.2-16.1-4.1.2.1.4.1.6.2 8.7 2.9 13.3 12.3 10.4 21-.8 2.3-2 4.3-3.5 6 1.9-.5 3.8-1.3 5.4-2.5 6.6-5.1 7.9-14.5 3.2-20.6z"/><path d="m18 10.4c.4-.3.7-.5 1.1-.8h.1c.4-.2.8-.4 1.1-.7 0 0 .1 0 .1-.1.8-.4 1.6-.7 2.4-1 .1 0 .1 0 .2-.1.4-.1.8-.3 1.2-.4h.1c.4-.1.8-.2 1.2-.2h.2c.6-.1 1-.1 1.4-.1h.3c.4 0 .9-.1 1.3-.1.5 0 1 0 1.5.1h.2c.5 0 .9.1 1.4.2h.2c.5.1.9.2 1.3.3.1 0 .1 0 .2.1.5.1 1 .2 1.4.4-.2-.4-.4-.7-.4-.7-2.9-4.6-7.7-7.3-12.9-7.3-3.1 0-7.9 1.1-11.5 5.4-2.4 2.9-3.2 6.3-2.7 9.7.3 2.3 1.6 5.4 3.5 7.3.7-4.9 3.3-9.2 7.1-12z"/><path d="m21.6 30.9c-1.3 0-2.6-.2-3.8-.4-.1 0-.3 0-.5 0-.4 0-.7.1-1 .3l-4 2.6c-.1.1-.2.1-.4.1-.3 0-.6-.3-.7-.6 0-.2 0-.3.1-.5 0-.1.4-2 .7-3.2 0-.1.1-.3 0-.4 0-.4-.2-.8-.6-1-4.3-2.9-7.2-7.5-7.8-12.2-1.1 1.7-1.6 3-2.2 5-2.1 7.3 2.5 16 9.9 18.4 8.6 2.8 16.7-.3 19.5-7.6.3-.9.7-2.4.8-3.6-2.9 2.1-6 3.1-10 3.1z"/></g></svg>