<?xml version="1.0" encoding="UTF-8"?>
<svg width="429px" height="32px" viewBox="0 0 429 32" version="1.1" xmlns="http://www.w3.org/2000/svg"
    xmlns:xlink="http://www.w3.org/1999/xlink">
    <title>{折腾⇌迷茫⇌思考]ing，在路上</title>
    <g id="Page-1" stroke="none" stroke-width="1" fill="none" fill-rule="evenodd">
        <g id="Group-9"
            transform="translate(200.500000, 14.000000) rotate(-90.000000) translate(-200.500000, -14.000000) translate(182.000000, -215.500000)"
            fill="#000" fill-rule="nonzero">
            <path
                d="M-193.236,255.76 C-192.98,255.76 -192.564,255.6 -192.532,255.312 C-193.876,254.992 -194.932,254.096 -195.38,253.072 C-195.7,252.368 -195.732,251.504 -195.668,250.736 C-195.604,249.488 -195.284,248.208 -195.156,246.992 C-195.06,246.064 -195.028,245.168 -195.284,244.272 C-195.476,243.664 -195.796,242.96 -196.308,242.384 C-195.796,241.808 -195.444,241.072 -195.284,240.464 C-195.028,239.6 -195.028,238.672 -195.124,237.776 C-195.284,236.528 -195.604,235.248 -195.668,234.032 C-195.732,233.264 -195.7,232.4 -195.38,231.664 C-194.9,230.64 -193.844,229.744 -192.468,229.424 C-192.596,229.072 -192.98,228.976 -193.204,228.976 C-193.566667,228.976 -193.886667,229.132444 -194.201926,229.303111 L-194.51701,229.473251 C-194.569728,229.500642 -194.622667,229.527111 -194.676,229.552 C-195.764,230.224 -196.34,231.088 -196.564,232.048 C-196.852,233.168 -196.756,234.416 -196.564,235.632 C-196.34,236.944 -196.02,238.288 -196.148,239.632 C-196.212,240.24 -196.372,240.848 -196.724,241.36 C-196.916,241.648 -197.172,241.808 -197.364,241.904 L-197.524,242 C-197.652,242.064 -197.78,242.16 -197.812,242.352 C-197.78,242.576 -197.588,242.704 -197.364,242.864 C-197.108,243.024 -196.884,243.152 -196.724,243.408 C-195.988,244.432 -196.052,245.904 -196.212,247.12 C-196.308,247.792 -196.468,248.464 -196.564,249.136 C-196.724,250.352 -196.884,251.568 -196.596,252.72 C-196.34,253.648 -195.764,254.544 -194.676,255.216 L-194.004,255.536 C-193.748,255.664 -193.492,255.76 -193.236,255.76 Z M-171.892,254.384 C-171.476,253.744 -171.284,253.04 -171.22,252.272 C-171.156,251.504 -171.188,250.736 -171.188,249.936 C-171.22,247.472 -171.156,245.2 -171.092,242.384 C-171.06,240.976 -170.868,239.6 -170.484,238.352 C-169.684,237.84 -168.884,237.328 -168.084,236.88 C-167.956,236.816 -167.828,236.752 -167.732,236.656 C-167.604,236.56 -167.508,236.4 -167.54,236.208 C-167.796,235.888 -168.052,235.92 -168.308,236.016 C-168.436,236.048 -168.532,236.112 -168.66,236.176 L-168.98,236.304 C-170.868,237.36 -172.692,238.672 -174.42,240.08 C-175.796,241.2 -177.108,242.384 -178.42,243.568 C-178.42,241.968 -178.452,240.528 -177.972,238.928 C-177.684,238.032 -177.3,237.2 -176.628,236.464 C-175.924,235.888 -175.188,235.344 -174.452,234.8 C-173.716,234.256 -172.98,233.712 -172.276,233.072 C-172.02,232.752 -171.764,232.24 -172.02,231.76 C-172.116,231.504 -172.34,231.376 -172.564,231.312 L-173.204,231.248 C-175.316,231.888 -177.236,232.976 -179.028,234.32 C-180.564,235.472 -181.972,236.816 -183.38,238.224 C-183.508,237.584 -183.412,236.752 -183.412,236.112 C-183.028,235.856 -182.58,235.632 -182.164,235.408 C-181.716,235.184 -181.236,234.96 -180.788,234.736 C-180.372,234.512 -180.084,234 -180.5,233.584 L-183.06,231.792 C-183.508,231.696 -183.924,231.696 -184.212,232.24 C-184.308,232.784 -184.372,233.296 -184.404,233.872 C-184.404,234.384 -184.436,234.928 -184.468,235.472 C-185.428,236.144 -186.996,237.168 -188.084,237.648 C-188.372,237.744 -188.692,237.904 -188.852,238.256 C-188.948,238.416 -189.044,238.736 -188.756,238.864 C-188.308,238.96 -188.276,238.768 -188.052,238.768 C-186.74,238 -185.396,237.168 -184.468,236.656 L-184.372,239.248 C-185.908,240.88 -187.252,242.512 -188.244,244.368 C-188.372,244.752 -188.34,245.072 -188.212,245.392 C-188.116,245.712 -187.924,246 -187.764,246.288 C-187.156,247.12 -186.164,247.824 -185.108,247.504 C-184.148,247.216 -183.54,246.16 -183.348,245.232 C-183.284,243.312 -183.284,241.36 -183.348,239.44 C-181.908,237.776 -180.34,236.24 -178.612,234.96 C-177.204,233.904 -174.516,232.176 -173.14,232.048 C-173.044,232.048 -172.948,232.176 -172.948,232.304 C-174.1,233.424 -175.476,234.576 -176.788,235.632 C-177.876,236.528 -178.516,237.68 -178.9,238.896 C-179.412,240.496 -179.54,242.16 -179.476,243.824 C-179.476,244.24 -179.412,244.656 -179.252,245.04 C-179.124,245.2 -178.836,245.328 -178.58,245.2 C-176.436,243.056 -174.196,240.88 -171.636,239.216 C-171.86,240.08 -171.956,240.976 -172.052,241.872 C-172.34,245.168 -172.116,248.592 -172.244,251.728 C-172.276,252.88 -172.372,254.032 -173.204,254.832 L-173.428,254.992 C-173.524,255.056 -173.652,255.12 -173.652,255.344 C-172.82,255.472 -172.244,254.96 -171.892,254.384 Z M-183.412,234.928 L-183.348,233.808 C-183.316,233.424 -183.284,233.072 -183.188,232.752 L-182.356,233.296 C-182.1,233.52 -181.812,233.712 -181.556,233.904 C-181.812,234.096 -182.1,234.256 -182.42,234.416 C-182.708,234.576 -183.06,234.768 -183.412,234.928 Z M-185.62,246.512 C-186.26,246.48 -186.836,245.968 -187.188,245.392 C-187.348,244.88 -187.188,244.464 -186.932,244.016 C-186.164,242.8 -185.364,241.616 -184.372,240.56 C-184.372,242.224 -184.276,243.984 -184.596,245.648 C-184.756,246.096 -185.172,246.48 -185.62,246.512 Z M-156.564,245.328 C-155.156,244.496 -153.972,243.344 -153.012,242 C-152.052,240.656 -151.284,239.12 -150.772,237.616 C-150.612,237.52 -150.356,237.36 -150.196,237.296 C-149.652,237.52 -149.204,237.776 -148.788,238.032 C-148.34,238.32 -147.924,238.672 -147.444,239.024 C-146.516,239.92 -145.748,240.656 -144.916,241.36 C-144.116,242.032 -143.252,242.64 -142.164,243.216 C-141.684,243.472 -141.108,243.856 -140.532,243.664 C-140.18,243.568 -140.052,243.184 -140.34,243.024 C-141.172,242.672 -141.972,242.256 -142.772,241.84 C-143.348,241.52 -143.732,241.2 -144.148,240.816 C-144.532,240.464 -144.916,240.016 -145.46,239.536 L-147.252,237.904 C-147.764,237.424 -148.372,237.072 -149.044,236.784 C-147.54,236.08 -146.004,235.376 -144.532,234.576 C-144.18,234.288 -143.7,233.936 -143.508,233.488 C-143.476,233.36 -143.572,232.976 -143.796,233.008 C-144.692,233.68 -145.62,234.192 -146.612,234.64 L-150.42,236.368 C-150.228,235.6 -150.164,234.8 -149.972,234.064 C-148.82,233.904 -147.7,233.712 -146.516,233.616 C-146.26,233.552 -146.228,233.232 -146.324,233.104 C-146.452,232.912 -146.676,232.784 -146.868,232.72 C-147.092,232.688 -147.348,232.656 -147.54,232.688 C-146.932,231.952 -146.324,231.216 -145.812,230.352 C-145.524,229.872 -145.236,229.328 -145.268,228.656 C-145.364,228.496 -145.524,228.432 -145.652,228.4 L-146.036,228.432 L-146.036,228.432 C-147.156,229.008 -148.244,229.616 -149.364,230.096 C-149.332,229.52 -149.172,228.848 -149.364,228.272 C-149.46,228.016 -149.94,227.92 -150.1,228.272 C-150.228,228.624 -150.324,229.04 -150.356,229.456 L-150.452,230.576 C-151.092,230.832 -151.668,231.184 -152.372,231.088 C-152.884,231.024 -153.3,230.736 -153.716,230.32 L-154.292,229.712 C-154.484,229.488 -154.644,229.264 -154.836,229.072 C-155.028,228.88 -155.316,228.88 -155.508,229.072 C-155.604,229.2 -155.732,229.424 -155.604,229.616 C-155.06,230.672 -154.1,231.792 -152.852,232.048 C-152.372,232.144 -151.956,232.048 -151.572,231.92 C-151.22,231.792 -150.9,231.632 -150.548,231.568 C-150.612,231.824 -150.644,232.112 -150.676,232.4 C-150.708,232.72 -150.772,233.008 -150.868,233.296 C-152.148,233.52 -153.364,233.808 -154.612,234.064 C-154.804,234.128 -154.996,234.32 -154.964,234.576 C-154.868,234.8 -154.676,234.864 -154.42,234.96 C-153.268,234.832 -152.18,234.448 -151.028,234.288 C-151.124,234.736 -151.156,235.184 -151.252,235.6 C-151.348,236.08 -151.444,236.496 -151.636,236.912 C-153.076,237.552 -154.548,238.032 -156.02,238.512 C-156.212,238.64 -156.468,238.8 -156.468,239.088 C-156.468,239.248 -156.372,239.344 -156.276,239.376 C-156.212,239.408 -156.148,239.408 -156.116,239.44 C-156.052,239.44 -156.02,239.44 -155.956,239.472 C-154.58,239.088 -153.268,238.544 -151.988,238.096 C-152.404,239.248 -153.012,240.4 -153.748,241.424 C-153.94,241.712 -154.164,242 -154.356,242.256 C-154.548,242.544 -154.772,242.8 -154.996,243.088 C-155.476,243.632 -156.052,244.144 -156.82,244.656 C-157.204,244.88 -157.3,245.2 -157.14,245.36 C-157.012,245.488 -156.756,245.488 -156.564,245.328 Z M-149.78,233.072 L-149.492,231.088 C-148.468,230.608 -147.476,230.096 -146.484,229.552 C-147.06,230.704 -147.956,231.824 -148.884,232.912 L-149.78,233.072 Z M-159.092,250.928 C-158.484,249.488 -158.196,247.856 -158.068,246.192 C-157.94,244.4 -157.972,242.576 -158.068,240.784 C-157.364,239.632 -156.756,238.352 -156.436,237.2 C-156.34,236.976 -156.66,236.816 -156.788,236.944 C-157.204,237.84 -157.588,238.544 -158.196,239.248 C-158.388,237.68 -158.548,236.048 -158.868,234.544 C-159.156,233.904 -159.732,233.456 -160.34,233.296 C-161.044,233.136 -161.748,233.52 -162.26,233.872 C-163.124,234.48 -163.764,235.44 -164.212,236.368 C-164.02,236.72 -163.604,236.592 -163.348,236.432 C-163.124,236.816 -163.06,237.264 -162.996,237.744 C-162.964,238.224 -162.996,238.736 -162.964,239.184 C-163.508,239.344 -164.02,239.504 -164.436,239.92 C-164.5,240.048 -164.596,240.144 -164.628,240.272 C-164.692,240.4 -164.692,240.56 -164.5,240.72 C-164.308,240.688 -164.18,240.624 -164.02,240.56 C-163.668,240.432 -163.316,240.208 -162.932,240.112 C-162.9128,240.3808 -162.91664,240.84544 -162.922784,241.340032 L-162.928928,241.838464 C-162.93072,242.00384 -162.932,242.1664 -162.932,242.32 L-162.988125,242.801125 L-162.988125,242.801125 L-163.088375,243.763375 C-163.1715,244.5615 -163.264,245.344 -163.444,246.064 C-163.668,246.896 -163.924,247.632 -164.5,248.304 C-164.628,248.4 -164.884,248.432 -165.044,248.368 C-165.108,248.368 -165.204,248.24 -165.236,248.208 C-165.364,248.08 -165.46,248.016 -165.62,248.08 C-165.78,248.56 -165.652,249.072 -165.204,249.328 C-164.948,249.488 -164.628,249.392 -164.372,249.328 C-163.828,248.976 -163.444,248.528 -163.156,248.016 C-162.708,247.28 -162.484,246.384 -162.324,245.552 C-162.164,245.68 -161.94,245.744 -161.716,245.712 C-161.268,245.296 -160.788,244.72 -160.276,244.048 C-159.828,243.472 -159.38,242.832 -158.932,242.224 C-158.9,243.504 -158.932,244.848 -159.06,246.16 C-159.188,247.504 -159.412,248.88 -159.764,250.128 C-159.924,250.416 -160.212,250.608 -160.532,250.576 C-160.82,250.512 -161.044,250.384 -161.268,250.224 C-161.492,250.064 -161.652,249.808 -161.78,249.584 C-161.844,249.456 -161.908,249.36 -161.972,249.296 C-162.036,249.2 -162.1,249.104 -162.292,249.04 C-162.356,249.616 -162.292,250 -162.036,250.416 C-161.748,250.96 -161.268,251.376 -160.692,251.536 C-160.02,251.696 -159.476,251.44 -159.092,250.928 Z M-159.604,241.456 C-159.604,241.2 -159.572,240.944 -159.604,240.688 C-159.668,240.336 -159.764,239.984 -160.02,239.728 C-160.532,239.248 -161.204,239.088 -161.94,239.056 C-162.004,238.48 -161.972,237.904 -162.036,237.36 C-162.132,236.752 -162.324,236.176 -162.836,235.728 C-162.42,235.184 -161.876,234.576 -161.236,234.384 C-160.948,234.288 -160.628,234.32 -160.34,234.416 C-160.084,234.48 -159.86,234.768 -159.828,234.96 C-159.444,236.784 -159.156,238.672 -159.06,240.592 C-159.252,240.88 -159.444,241.168 -159.604,241.456 Z M-162.1,244.496 C-161.94,243.088 -161.844,241.584 -161.876,240.08 C-161.652,240.08 -161.428,240.112 -161.204,240.176 C-160.98,240.24 -160.788,240.368 -160.692,240.624 C-160.564,241.168 -160.66,241.712 -160.82,242.224 C-161.14,243.152 -161.556,243.792 -162.1,244.496 Z M-148.276,247.504 C-148.052,247.472 -147.86,247.344 -147.668,247.088 C-147.22,246.448 -146.74,245.264 -146.388,244.24 C-146.132,243.44 -145.94,242.704 -145.972,242.384 C-146.036,241.712 -146.164,241.264 -146.484,241.04 C-146.868,240.752 -147.412,240.688 -147.892,240.72 C-148.628,240.784 -149.396,241.008 -150.132,241.168 C-150.676,241.296 -151.252,241.424 -151.796,241.36 C-152.084,241.328 -152.212,241.488 -152.276,241.68 C-152.308,241.904 -152.148,242.128 -151.892,242.224 C-151.476,242.352 -150.644,242.192 -149.876,242 L-148.596,241.68 C-148.212,241.584 -147.828,241.584 -147.54,241.616 C-147.156,241.648 -147.06,241.776 -146.996,242.032 C-146.9,242.352 -147.156,243.024 -147.444,243.92 L-147.828,245.072 C-147.956,245.456 -148.116,245.84 -148.34,246.256 C-148.404,246.352 -148.436,246.32 -148.5,246.256 C-149.044,245.872 -149.428,245.488 -149.812,245.008 C-149.972,244.848 -150.388,245.04 -150.164,245.296 C-149.908,245.808 -149.364,246.576 -148.948,247.12 C-148.756,247.376 -148.532,247.536 -148.276,247.504 Z M-147.636,255.376 C-146.964,255.12 -146.26,254.736 -145.62,254.192 C-145.012,253.68 -144.5,253.072 -144.18,252.4 C-143.796,251.568 -143.604,250.576 -143.636,249.68 C-143.636,249.2 -143.796,248.784 -144.084,248.464 C-144.404,248.144 -144.948,247.888 -145.716,247.856 C-146.708,247.792 -149.748,248.176 -151.38,248.592 C-151.636,248.688 -151.636,248.592 -151.604,248.496 C-151.412,247.6 -151.22,246.928 -151.028,246.384 C-150.836,245.776 -150.676,245.296 -150.548,244.528 C-150.516,244.336 -150.708,244.08 -150.932,244.08 C-151.124,244.08 -151.316,244.208 -151.38,244.4 C-151.892,245.488 -152.468,247.12 -152.692,248.688 C-152.724,249.04 -152.628,249.328 -152.404,249.488 C-152.148,249.68 -151.796,249.712 -151.412,249.584 C-150.932,249.392 -150.292,249.264 -149.684,249.136 C-149.076,249.008 -148.5,248.944 -148.084,248.88 C-147.252,248.752 -146.548,248.72 -146.132,248.688 C-145.364,248.624 -144.628,248.88 -144.628,249.648 C-144.66,250.8 -144.852,251.728 -145.396,252.528 C-146.004,253.424 -147.028,254.128 -148.116,254.736 C-148.564,254.96 -148.596,255.12 -148.564,255.28 C-148.436,255.472 -147.924,255.472 -147.636,255.376 Z M-154.26,252.88 C-153.972,252.752 -153.748,252.624 -153.492,252.56 C-153.268,252.464 -153.044,252.4 -152.724,252.336 L-150.004,251.856 C-148.916,251.664 -147.732,251.44 -146.644,251.44 L-146.452,251.44 C-146.356,251.408 -146.26,251.344 -146.164,251.344 C-146.004,251.312 -145.812,251.216 -145.812,250.992 C-145.812,250.64 -146.196,250.544 -146.836,250.608 C-147.348,250.672 -148.372,250.736 -149.46,250.928 C-150.548,251.12 -151.7,251.312 -152.5,251.408 C-153.364,251.504 -154.228,251.696 -154.836,252.272 C-154.996,252.432 -154.996,252.72 -154.836,252.848 C-154.676,252.976 -154.484,253.008 -154.26,252.88 Z M-100.052,238.256 L-100.052,237.872 C-102.964,235.984 -105.012,234.48 -107.7,232.304 L-108.372,232.88 L-104.02,236.912 L-128.66,236.912 L-128.66,238.256 L-100.052,238.256 Z M-121.652,251.376 L-120.98,250.8 L-125.364,246.768 L-100.692,246.768 L-100.692,245.424 L-129.332,245.424 L-129.332,245.808 C-126.42,247.696 -124.34,249.2 -121.652,251.376 Z M-72.692,249.2 C-72.148,248.88 -71.732,248.432 -71.732,247.824 C-71.764,245.904 -71.892,244.016 -71.892,242.128 C-70.996,242.512 -70.132,242.896 -69.236,243.376 C-68.244,243.888 -67.284,244.56 -66.292,245.104 C-66.196,245.168 -66.036,245.264 -65.876,245.328 C-65.748,245.392 -65.556,245.424 -65.396,245.424 C-65.108,245.424 -64.916,245.072 -64.948,244.784 C-67.252,243.312 -69.524,241.968 -71.956,241.04 C-71.956,240.24 -71.924,238.832 -71.924,238.032 C-70.036,237.392 -68.148,236.752 -66.1,236.368 C-65.876,236.272 -65.588,236.048 -65.844,235.664 C-66.068,235.536 -66.324,235.408 -66.612,235.472 C-67.7,235.728 -68.82,236.048 -69.908,236.368 C-68.788,235.088 -67.732,233.776 -67.092,232.24 L-67.092,231.984 C-67.092,231.888 -67.06,231.824 -67.092,231.728 C-67.092,231.568 -67.188,231.408 -67.412,231.312 C-67.7,231.216 -67.892,231.248 -68.18,231.28 L-70.068,232.56 C-70.676,232.976 -71.252,233.328 -71.86,233.584 C-71.828,232.784 -71.732,231.376 -71.668,230.544 C-71.668,230.48 -71.668,230.384 -71.7,230.32 C-71.7,230.256 -71.732,230.16 -71.732,230.064 C-71.86,229.904 -71.988,229.776 -72.212,229.84 C-72.372,229.904 -72.5,230.032 -72.596,230.192 C-72.756,231.312 -72.852,232.848 -72.884,234.096 C-73.716,234.384 -74.708,235.184 -75.636,234.672 C-76.18,234.352 -76.66,233.776 -76.82,233.2 C-76.916,233.04 -76.948,232.912 -77.012,232.752 C-77.14,232.272 -77.236,231.792 -77.556,231.376 C-77.716,231.248 -78.036,231.248 -78.196,231.44 C-78.292,231.728 -78.292,232.016 -78.228,232.272 C-78.196,232.528 -78.1,232.752 -78.068,233.008 C-77.78,233.872 -77.172,234.864 -76.308,235.408 C-75.796,235.728 -75.252,235.92 -74.612,235.76 C-74.036,235.632 -73.492,235.312 -72.916,235.152 C-72.948,235.504 -72.948,235.888 -72.948,236.272 C-72.948,236.656 -72.948,237.04 -72.98,237.392 L-79.764,240.048 C-79.924,240.336 -79.668,240.592 -79.444,240.656 C-79.22,240.784 -78.964,240.784 -78.74,240.752 C-78.516,240.688 -78.292,240.592 -78.068,240.56 C-76.404,239.792 -74.708,239.056 -72.98,238.48 C-73.004,238.936 -73.01,239.662 -73.0115,240.28 L-73.012,240.848 L-73.012,240.848 C-73.3,240.784 -73.62,240.752 -73.908,240.752 L-73.876,240.688 C-73.748,240.432 -73.716,240.208 -73.844,239.952 C-74.004,239.888 -74.132,239.888 -74.26,239.92 C-74.356,239.952 -74.452,240.016 -74.548,240.08 C-75.156,240.72 -75.636,241.424 -76.052,242.16 C-76.468,242.864 -76.852,243.632 -77.332,244.304 C-77.684,244.816 -77.972,245.36 -78.324,245.872 C-78.644,246.352 -79.06,246.832 -79.572,247.248 C-79.572,247.536 -79.252,247.632 -79.092,247.632 C-78.772,247.632 -78.516,247.504 -78.292,247.28 C-77.3349091,246.180364 -76.546281,244.95114 -75.7859264,243.707781 L-75.1378482,242.641274 C-74.9219504,242.286413 -74.7050909,241.933091 -74.484,241.584 C-73.94,241.52 -73.396,241.584 -72.948,241.776 C-72.884,243.696 -72.852,245.68 -72.82,247.408 C-72.852,247.696 -72.916,248.08 -73.076,248.24 C-73.3,248.464 -73.684,248.496 -74.036,248.464 C-74.548,248.336 -75.028,248.368 -75.284,248.496 C-75.284,248.752 -74.932,249.136 -74.804,249.232 C-74.164,249.584 -73.3,249.552 -72.692,249.2 Z M-71.924,237.008 C-71.924,236.4 -71.892,235.44 -71.86,234.64 C-70.708,234 -69.588,233.2 -68.468,232.432 L-68.468,232.592 L-68.628,232.912 C-69.268,234.224 -70.164,235.472 -71.124,236.72 C-71.38,236.816 -71.668,236.944 -71.924,237.008 Z M-81.556,237.008 C-81.556,236.656 -81.812,236.336 -82.004,236.08 C-82.484,235.504 -83.156,234.864 -83.828,234.48 C-84.212,234.288 -84.628,234.064 -85.044,233.968 C-85.364,233.904 -85.684,233.936 -86.004,234.16 C-86.132,234.32 -86.132,234.64 -85.908,234.736 C-84.5,235.12 -83.252,236.112 -82.132,237.328 C-81.876,237.52 -81.556,237.328 -81.556,237.008 Z M-64.532,252.336 C-63.956,252.016 -63.284,251.6 -63.06,250.832 C-62.996,250.544 -63.156,250.288 -63.476,250.32 C-64.596,251.472 -66.036,252.048 -67.54,252.304 C-70.068,252.72 -72.82,252.208 -75.092,251.408 C-76.628,250.896 -78.1,250.128 -79.54,249.36 C-80.948,248.592 -82.356,247.888 -83.86,247.376 C-83.252,246.576 -82.836,245.744 -82.676,244.72 C-82.612,244.176 -82.74,243.664 -82.996,243.216 C-83.156,242.864 -83.38,242.576 -83.636,242.288 L-84.34,241.424 C-84.436,241.104 -84.34,240.848 -84.148,240.624 L-83.7,240.144 C-83.54,240.016 -83.38,239.856 -83.284,239.696 C-83.188,239.536 -83.316,239.184 -83.572,239.28 C-84.244,239.6 -85.044,240.112 -85.396,240.88 C-85.62,241.648 -85.236,242.128 -84.724,242.64 C-84.532,242.832 -84.308,243.024 -84.116,243.248 C-83.796,243.568 -83.636,243.984 -83.732,244.464 C-83.956,245.424 -84.052,246.48 -84.756,247.184 C-85.428,247.152 -86.1,247.184 -86.708,247.344 C-87.316,247.536 -87.924,247.888 -88.372,248.432 C-88.5,248.656 -88.532,248.912 -88.212,249.104 L-87.54,248.688 C-87.316,248.528 -87.124,248.4 -86.9,248.336 C-86.164,248.016 -85.396,248.016 -84.692,248.176 C-84.0977143,248.290286 -83.5360816,248.502531 -82.9837784,248.731102 L-82.324,249.008 L-82.324,249.008 C-80.372,250.096 -78.42,251.216 -76.372,252.048 C-74.388,252.88 -72.308,253.424 -69.972,253.552 C-68.02,253.648 -66.1,253.264 -64.532,252.336 Z M-49.46,238.416 C-48.596,237.744 -47.956,236.944 -47.476,236.048 C-46.996,235.152 -46.644,234.224 -46.292,233.296 C-44.852,233.072 -43.316,232.976 -41.812,232.816 C-41.716,232.752 -41.62,232.688 -41.524,232.592 C-41.428,232.496 -41.364,232.368 -41.46,232.208 C-41.524,232.08 -41.652,232.016 -41.78,232.016 L-42.1,231.952 C-43.412,232.048 -44.98,232.208 -46.036,232.272 C-46.036,232.176 -46.004,232.08 -46.004,231.984 C-45.972,231.856 -45.908,231.728 -45.908,231.6 C-45.844,231.312 -45.844,230.992 -46.068,230.672 C-46.772,230.672 -46.964,231.152 -47.06,231.6 L-47.156,232.08 C-47.188,232.24 -47.22,232.368 -47.284,232.432 C-47.8706667,232.538667 -48.6128889,232.684222 -49.3764074,232.83163 L-50.2942593,233.007037 C-51.0533333,233.15 -51.78,233.28 -52.34,233.36 C-52.276,232.432 -52.18,231.44 -51.7,230.8 C-51.508,230.544 -51.284,230.352 -51.028,230.224 C-50.836,230.16 -50.452,230.096 -50.324,230.128 C-50.132,230.16 -49.94,229.936 -50.068,229.744 C-50.42,229.36 -50.996,229.296 -51.476,229.264 C-51.892,229.296 -52.148,229.616 -52.436,229.872 C-53.108,230.992 -53.364,232.208 -53.428,233.552 L-58.26,234.608 C-58.58,234.672 -58.74,234.992 -58.804,235.152 C-58.804,235.28 -58.708,235.6 -58.484,235.6 C-57.588,235.568 -56.724,235.376 -55.86,235.152 C-55.028,234.96 -54.228,234.704 -53.364,234.608 C-53.268,235.216 -53.204,235.92 -52.916,236.496 C-52.692,237.008 -52.372,237.36 -51.828,237.488 C-50.996,237.648 -50.388,237.328 -49.78,236.848 C-49.364,236.496 -48.98,236.048 -48.66,235.632 L-47.988,234.768 C-48.372,235.888 -48.98,236.976 -49.812,237.936 C-50.036,238.192 -49.812,238.608 -49.46,238.416 Z M-51.796,236.304 C-52.116,235.76 -52.212,235.088 -52.276,234.416 C-50.868,234.096 -49.396,233.872 -47.956,233.584 C-48.468,234.224 -48.98,234.896 -49.524,235.472 C-49.972,235.952 -50.452,236.304 -51.092,236.56 C-51.38,236.592 -51.636,236.528 -51.796,236.304 Z M-45.908,254.192 C-43.636,253.52 -41.46,252.592 -39.38,251.312 C-38.868,250.896 -38.1,250.512 -37.876,249.84 C-37.812,249.648 -38.1,249.488 -38.324,249.52 C-40.596,251.184 -43.06,252.272 -45.684,253.072 C-46.004,253.136 -46.356,253.104 -46.612,253.04 C-46.836,253.008 -47.028,252.848 -47.22,252.56 C-47.38,252.208 -47.54,251.6 -47.572,250.896 C-47.636,250.192 -47.54,249.392 -47.252,248.784 C-46.932,248.08 -46.58,247.44 -45.844,247.024 C-44.116,246.032 -42.452,244.976 -40.82,243.856 L-40.596,243.664 C-40.34,243.44 -40.084,243.216 -40.148,242.832 C-40.244,242.512 -40.628,242.352 -40.884,242.32 C-41.3,242.352 -41.684,242.448 -42.036,242.544 L-43.156,242.832 C-44.084,243.056 -44.948,243.504 -45.844,243.792 C-45.492,243.504 -45.14,243.248 -44.788,242.992 C-44.34,242.64 -43.86,242.256 -43.412,241.84 C-43.284,241.712 -43.06,241.392 -43.06,241.072 C-43.092,240.592 -43.316,240.176 -43.636,239.856 C-44.084,239.408 -44.628,238.992 -45.236,238.64 L-46.964,237.68 C-47.38,237.584 -47.956,237.552 -48.244,238.032 C-49.78,241.456 -51.508,244.784 -53.364,248.08 C-53.556,247.6 -53.876,247.248 -54.292,246.992 C-54.9,246.64 -55.668,246.448 -56.34,246.32 C-56.532,246.288 -56.756,246.288 -56.98,246.288 L-57.332,246.288 C-56.724,245.968 -56.116,245.648 -55.54,245.296 C-54.868,244.912 -54.196,244.496 -53.556,244.016 C-53.172,243.6 -52.468,243.312 -52.436,242.64 C-52.5,242.32 -52.468,242 -52.724,241.744 C-53.556,241.168 -54.612,240.88 -55.668,240.816 C-56.596,240.752 -57.556,240.848 -58.452,241.04 C-58.708,241.168 -58.964,241.456 -58.932,241.84 C-58.772,242.16 -58.388,242.128 -58.1,242.064 C-56.82,241.744 -55.284,241.872 -54.036,242.192 C-53.876,242.192 -53.588,242.416 -53.556,242.576 C-53.428,242.704 -53.684,242.832 -53.684,242.96 C-55.54,244.464 -57.492,245.584 -59.668,246.256 C-59.892,246.352 -60.052,246.608 -60.052,246.864 C-59.988,246.992 -59.956,247.12 -59.924,247.248 C-59.86,247.376 -59.764,247.504 -59.54,247.536 C-58.708,247.344 -57.812,247.344 -56.948,247.312 C-55.956,247.408 -54.996,247.504 -54.324,248.144 C-54.164,248.336 -54.196,248.624 -54.324,248.912 C-54.548,249.584 -54.9,250.192 -55.316,250.8 C-55.732,251.408 -56.18,252.016 -56.66,252.624 C-56.724,253.072 -56.308,253.456 -55.892,253.456 C-54.932,252.592 -54.388,251.536 -53.748,250.416 C-51.636,246.64 -49.62,242.768 -47.7,238.928 C-47.604,238.768 -47.476,238.672 -47.284,238.736 C-46.132,239.312 -44.948,240.08 -44.148,240.88 C-44.052,241.008 -43.988,241.136 -44.276,241.424 C-46.004,243.12 -47.956,244.4 -50.036,245.36 C-50.292,245.488 -50.356,245.712 -50.324,245.936 C-50.196,246.224 -49.972,246.352 -49.684,246.48 C-47.124,245.264 -44.436,244.112 -41.78,243.44 C-41.748,243.408 -41.748,243.44 -41.78,243.472 C-43.284,244.56 -44.852,245.488 -46.356,246.512 C-46.964,246.928 -47.668,247.408 -48.084,248.112 C-48.436,248.944 -48.596,249.872 -48.564,250.8 C-48.532,251.696 -48.34,252.56 -47.956,253.328 C-47.508,253.968 -46.772,254.32 -45.908,254.192 Z M2.54,238.256 L2.54,237.872 C-0.372,235.984 -2.42,234.48 -5.108,232.304 L-5.78,232.88 L-1.428,236.912 L-26.068,236.912 L-26.068,238.256 L2.54,238.256 Z M-19.06,251.376 L-18.388,250.8 L-22.772,246.768 L1.9,246.768 L1.9,245.424 L-26.74,245.424 L-26.74,245.808 C-23.828,247.696 -21.748,249.2 -19.06,251.376 Z M23.756,242.16 C24.428,241.52 25.164,240.976 25.9,240.464 C26.572,239.984 27.276,239.504 27.916,238.992 C27.852,239.184 27.756,239.44 27.628,239.664 C27.5,240.016 27.34,240.336 27.308,240.432 L27.148,240.656 C26.924,240.976 26.636,241.168 26.636,241.616 C26.988,241.616 27.18,241.552 27.34,241.456 L27.852,241.072 C29.292,239.216 29.644,236.944 29.74,234.608 C29.804,233.488 29.292,232.432 28.492,231.728 C27.82,231.152 27.116,231.024 26.284,230.928 C24.716,230.768 22.988,231.152 21.772,232.144 C21.004,232.784 20.524,233.584 20.652,234.64 C20.652,234.896 20.972,235.056 21.196,234.928 C21.42,234.064 21.836,233.328 22.572,232.816 C23.468,232.208 24.812,231.824 26.06,231.952 C26.796,232.016 27.628,232.208 28.108,232.784 C28.588,233.328 28.716,234 28.716,234.768 C28.716,235.504 28.524,236.944 28.3,237.68 C27.02,238.64 25.676,239.536 24.3,240.336 L24.396,239.984 L24.556,239.408 C24.62,238.992 24.652,238.576 24.652,238.16 C24.652,237.776 24.684,237.36 24.748,237.008 C25.644,236.656 26.54,236.4 27.436,236.08 C27.692,235.984 28.076,235.728 28.076,235.312 C28.044,235.024 27.852,234.8 27.596,234.608 C26.988,234.32 25.708,233.776 25.068,233.424 C24.844,233.424 24.588,233.392 24.364,233.424 C24.108,233.488 23.916,233.616 23.788,233.936 C23.66,234.352 23.628,234.8 23.66,235.248 C23.66,235.632 23.724,236.08 23.692,236.464 C22.444,237.008 21.228,237.552 20.012,238.192 C19.308,236.464 19.02,234.416 19.372,232.432 C19.436,232.112 19.596,231.824 19.724,231.536 C19.884,231.216 20.044,230.896 20.076,230.512 C19.98,230.288 19.788,230.224 19.564,230.192 C18.86,230.704 18.54,231.504 18.316,232.24 C17.964,234.416 18.348,236.88 19.084,238.832 C19.372,239.312 19.532,239.888 19.788,240.4 C20.044,240.912 20.396,241.36 21.068,241.584 C21.324,241.552 21.58,241.488 21.708,241.2 C21.804,241.04 21.868,240.816 21.804,240.56 C21.324,240.624 21.068,240.4 20.876,240.112 C20.652,239.792 20.524,239.472 20.396,239.152 C21.42,238.512 22.508,237.968 23.596,237.552 C23.596,238.48 23.436,239.408 23.244,240.272 C23.244,240.368 23.212,240.464 23.18,240.528 C23.052,240.816 22.892,241.104 22.828,241.424 C22.796,241.712 22.892,241.968 23.148,242.16 C23.308,242.288 23.628,242.288 23.756,242.16 Z M24.78,235.984 L24.78,235.696 C24.78,235.248 24.716,234.768 24.812,234.32 C25.516,234.48 26.156,234.832 26.764,235.184 C26.796,235.216 26.86,235.248 26.828,235.248 C26.124,235.536 25.484,235.76 24.78,235.984 Z M14.796,251.728 C15.18,251.632 15.436,251.312 15.628,251.088 C15.692,250.96 15.692,250.832 15.66,250.736 L15.628,250.544 L15.628,250.544 C16.556,248.496 18.028,246.736 19.244,244.816 L19.692,244.112 C19.852,243.888 19.98,243.632 20.108,243.376 C20.204,243.12 20.044,242.768 19.756,242.928 C18.22,244.432 17.004,246.128 15.82,247.856 L15.584,248.259 L15.584,248.259 L15.064,249.053 C14.98,249.186 14.9,249.32 14.828,249.456 C14.508,250 14.284,250.608 14.38,251.312 C14.412,251.536 14.604,251.696 14.796,251.728 Z M25.772,252.816 C27.436,252.368 29.612,250.896 30.668,249.52 C30.924,249.2 31.18,248.848 31.148,248.432 C31.084,248.016 30.828,247.824 30.54,247.6 C29.804,247.088 29.068,246.704 28.268,246.384 C28.652,246.192 29.1,246.064 29.548,246 C32.428,245.488 34.54,247.6 36.396,249.456 C36.62,249.616 37.004,249.584 37.196,249.328 C37.292,248.72 36.876,248.272 36.492,247.888 C36.364,247.792 36.204,247.664 36.108,247.536 C35.148,246.768 34.124,246.064 33.036,245.552 C32.172,245.168 31.18,244.944 30.156,244.976 C29.58,244.976 29.004,245.104 28.492,245.296 C28.012,245.456 27.5,245.712 27.02,245.84 C26.508,245.968 25.996,246.096 25.42,245.968 C25.356,245.968 25.26,245.936 25.164,245.904 C24.844,245.808 24.556,245.68 24.236,245.872 C24.172,246 24.076,246.192 24.172,246.416 C24.94,247.12 26.22,247.184 27.148,246.8 C27.756,246.992 29.42,247.792 29.964,248.432 C30.06,248.528 30.028,248.688 29.868,248.88 C28.876,250.096 27.596,251.056 26.124,251.568 C25.548,251.792 25.004,251.888 24.396,251.856 C23.628,251.792 23.052,251.472 22.7,250.736 C22.54,250.352 22.444,249.936 22.38,249.488 C22.348,249.04 22.316,248.56 22.252,248.144 C22.22,247.888 22.22,247.632 22.22,247.376 C22.22,247.12 22.22,246.864 22.252,246.608 C22.252,246.096 22.188,245.584 21.9,245.136 C21.676,244.976 21.42,244.816 21.036,244.88 C20.62,245.136 20.236,245.552 20.076,246.128 C20.332,246.096 20.428,246.064 20.524,246.032 C20.62,246.032 20.716,246 20.844,246.032 C20.94,246.032 21.068,246.16 21.132,246.32 L21.196,248.336 C21.228,249.04 21.26,249.712 21.42,250.352 C21.644,251.152 22.028,251.888 22.764,252.4 C23.724,253.072 24.748,253.104 25.772,252.816 Z M40.172,248.752 C41.9,247.12 43.724,245.2 45.42,243.504 C45.9252632,243.008842 46.5581717,242.382848 47.2300458,241.712681 L47.9116239,241.031 L47.9116239,241.031 L48.5994722,240.33913 C49.6260942,239.303313 50.6073684,238.298105 51.244,237.616 L53.388,235.344 C53.548,235.024 53.196,234.288 52.652,234.352 C50.604,235.376 48.428,236.464 46.284,237.328 C46.572,236.784 46.764,236.144 46.924,235.44 C47.116,234.672 47.244,233.84 47.404,233.136 C48.556,232.752 50.06,232.304 51.468,232.016 C51.724,231.888 51.98,231.792 52.012,231.472 C51.756,230.832 51.276,230.512 50.732,230.256 C50.348,230.096 49.932,229.872 49.516,229.616 C49.1,229.36 48.652,229.072 48.236,228.848 C47.884,228.624 47.436,228.528 47.052,228.944 C46.732,229.488 46.636,230.064 46.572,230.672 C46.54,231.28 46.508,231.856 46.444,232.432 L42.828,233.68 C42.54,233.776 42.348,234.096 42.348,234.416 C42.412,234.608 42.508,234.672 42.636,234.704 C42.732,234.704 42.828,234.736 42.956,234.768 C44.076,234.352 45.164,233.872 46.252,233.552 C46.124,234.288 46.028,235.056 45.868,235.76 C45.708,236.496 45.484,237.2 45.1,237.84 C43.884,238.32 42.636,238.704 41.292,238.992 C41.1,239.088 40.908,239.344 40.972,239.6 C41.068,239.888 41.388,239.952 41.58,239.984 C43.308,239.617455 44.9288926,238.951008 46.530311,238.265088 L47.596,237.808 L47.596,237.808 C48.46,237.424 50.316,236.528 51.34,236.048 C49.356,238.096 45.868,241.712 43.884,243.728 C42.956,244.688 40.812,247.056 39.756,248.176 C39.532,248.432 39.724,248.944 40.172,248.752 Z M47.532,232.048 C47.564,231.504 47.66,230.544 47.788,230 C47.788,229.904 47.884,229.776 47.98,229.744 C48.908,230.032 49.868,230.48 50.572,231.152 C49.548,231.504 48.524,231.792 47.532,232.048 Z M48.364,254.16 C49.804,253.872 51.788,252.432 52.812,251.312 C53.228,250.832 53.58,250.32 53.644,249.712 C53.644,248.56 52.748,247.76 51.852,247.28 C51.692,247.152 51.5,247.088 51.308,247.024 C50.764,246.832 50.22,246.704 49.804,246.256 C49.676,245.808 49.676,245.36 49.708,244.912 C49.74,244.432 49.836,243.984 49.868,243.504 C51.756,242.096 53.836,240.976 56.012,240.08 L56.108,239.984 L56.268,239.888 C56.364,239.824 56.46,239.728 56.428,239.536 C56.332,239.248 56.012,239.056 55.692,239.152 C53.644,239.824 51.82,241.04 50.028,242.224 L50.124,241.616 C50.156,241.328 50.22,241.04 50.124,240.752 C50.028,240.464 49.836,240.304 49.644,240.272 C49.452,240.24 49.26,240.304 49.196,240.496 C49.1,241.104 48.94,242.416 48.812,243.12 L47.82,243.856 C47.66,243.984 47.596,244.4 47.98,244.336 C48.172,244.304 48.332,244.24 48.46,244.176 L48.748,244.08 C48.652,245.008 48.396,245.904 48.78,246.8 C48.94,247.12 49.196,247.28 49.452,247.408 L50.284,247.696 C50.668,247.888 51.116,248.048 51.5,248.24 C51.884,248.464 52.236,248.688 52.396,249.104 C52.62,249.552 52.556,250.096 52.204,250.448 C51.052,251.536 49.868,252.656 48.46,253.072 C47.98,253.232 47.5,253.264 46.988,253.232 C46.732,253.232 46.54,253.104 46.348,252.912 C46.188,252.72 46.06,252.464 45.9,252.272 C45.676,251.888 45.548,251.472 45.292,251.088 C45.228,250.992 45.1,250.928 45.004,250.96 C44.908,250.96 44.78,251.056 44.844,251.184 C44.972,252.176 45.324,253.104 46.06,253.872 C46.86,254.256 47.628,254.288 48.364,254.16 Z M59.628,255.568 C60.78,255.44 61.932,255.184 63.02,254.864 C64.108,254.576 65.196,254.224 66.284,253.872 C66.54,253.808 66.7,253.456 66.668,253.2 C66.444,252.944 66.22,252.912 65.996,252.912 C65.836,252.912 65.676,252.944 65.548,252.944 C65.804,252.176 65.996,251.344 65.996,250.48 C66.028,248.464 65.932,244.496 65.9,242.48 C65.868,239.888 66.028,235.248 66.092,232.304 C66.092,232.208 66.092,232.112 66.124,231.984 C66.188,231.664 66.316,231.376 66.284,231.024 C66.124,230.64 65.836,230.384 65.516,230.192 C63.948,229.488 62.284,228.944 60.428,229.072 C59.788,229.136 58.956,229.264 58.668,230.096 C58.796,230.352 59.148,230.416 59.5,230.352 C61.388,230.096 63.34,230.416 64.94,231.184 C65.068,231.376 65.068,231.696 65.036,231.952 C64.972,233.936 64.844,237.776 64.844,239.632 C64.876,243.12 64.972,246.672 64.94,250.16 C64.94,251.28 64.748,252.336 64.332,253.296 C62.956,253.744 61.516,254.032 60.14,254.288 C59.852,254.352 59.564,254.352 59.308,254.416 C59.02,254.48 58.764,254.608 58.636,254.992 C58.796,255.376 59.212,255.632 59.628,255.568 Z M77.164,233.904 C77.228,233.52 77.004,233.232 76.812,233.072 C75.404,231.792 73.708,231.12 71.788,231.088 C71.468,231.344 71.5,231.984 71.82,232.016 C73.228,232.304 74.54,232.656 75.82,233.232 L76.428,233.584 C76.62,233.68 76.844,233.808 77.164,233.904 Z M75.02,252.144 C75.532,252.016 76.012,251.696 76.364,251.312 C76.876,250.736 77.292,250.032 77.42,249.392 L77.548,248.816 C77.58,248.624 77.58,248.4 77.324,248.176 C77.068,248.4 76.94,248.656 76.844,248.88 C76.748,249.104 76.684,249.36 76.556,249.584 C76.3,249.936 76.044,250.352 75.692,250.64 C75.372,250.896 75.052,251.12 74.668,251.088 C74.476,251.088 74.092,250.736 74.06,250.544 C73.42,248.368 73.772,244.048 74.188,240.816 C74.22,240.56 74.252,240.24 74.028,239.984 C73.804,239.856 73.324,239.728 73.164,239.984 C72.364,241.2 71.756,242.448 71.052,243.696 C70.348,244.944 69.58,246.16 68.588,247.28 C68.492,247.408 68.524,247.536 68.62,247.6 C68.716,247.664 68.844,247.696 68.94,247.696 C69.164,247.664 69.42,247.504 69.58,247.376 C70.348,246.544 70.956,245.68 71.5,244.784 C71.98,243.984 72.428,243.216 72.876,242.384 C72.652,245.008 72.524,247.632 72.876,250.256 C72.972,250.896 73.164,251.44 73.676,251.888 C73.964,252.144 74.636,252.176 75.02,252.144 Z M87.724,252.112 C89.036,250.992 89.964,249.648 90.636,248.176 C90.668,248.048 90.444,247.76 90.284,247.92 L89.1,249.456 C88.716,249.872 88.332,250.288 87.884,250.608 C87.98,249.328 88.044,248.016 88.012,246.736 C87.98,245.392 88.076,243.952 87.884,242.608 C87.756,241.776 87.532,241.008 87.116,240.304 C86.764,240.016 86.412,239.824 85.964,239.792 C85.484,239.728 85.132,239.984 84.812,240.176 C83.756,241.168 82.988,242.32 82.316,243.504 C81.644,244.72 81.1,246.064 80.62,247.376 C80.396,245.136 80.268,242.864 79.98,240.624 L79.82,240.304 C79.66,239.952 79.436,239.632 79.02,239.568 C78.732,239.632 78.668,239.984 78.7,240.144 C79.052,240.976 79.116,241.904 79.18,242.8 C79.276,244.432 79.564,247.216 79.628,249.328 C79.628,249.936 79.66,251.056 79.66,251.632 C79.788,252.08 80.428,252.016 80.556,251.664 C80.78,250.128 81.1,248.592 81.612,247.152 C82.22,245.36 83.02,243.664 84.204,242.16 C84.524,241.776 84.876,241.232 85.292,240.976 C85.644,240.784 85.996,240.752 86.284,241.04 C86.412,241.136 86.476,241.296 86.54,241.456 C86.604,241.616 86.636,241.776 86.668,241.968 C86.956,244.752 87.02,247.76 86.828,250.544 C86.86,250.64 86.86,250.736 86.86,250.832 C86.828,251.12 86.764,251.472 86.828,251.76 C86.924,252.048 87.372,252.4 87.724,252.112 Z M95.468,259.28 C96.492,258.736 97.132,258 97.516,257.072 C97.868,256.176 97.996,255.152 98.06,254.064 C98.092,253.04 98.092,251.952 98.092,250.896 C98.284,250.704 98.54,250.512 98.764,250.32 C99.02,250.096 99.276,249.872 99.468,249.616 C99.596,249.424 99.532,249.04 99.34,249.04 C99.116,249.168 98.892,249.296 98.668,249.456 C98.476,249.552 98.284,249.68 98.124,249.744 C98.124,248.048 98.22,246.448 98.38,244.816 C98.316,244.432 98.508,244.016 98.412,243.632 C98.316,243.376 98.06,243.152 97.772,243.12 C97.612,243.12 97.452,243.184 97.292,243.248 C97.452,242.48 97.644,241.552 97.292,240.784 C97.068,240.336 96.62,240.016 96.236,239.824 C95.692,239.696 95.052,239.76 94.604,240.048 C93.9,240.528 93.356,241.168 92.908,241.776 C92.108,242.896 91.628,244.176 91.5,245.552 C91.5,246.448 91.884,247.344 92.78,247.728 C93.612,247.92 94.316,247.696 94.924,247.248 C95.436,246.864 95.884,246.32 96.332,245.744 L97.356,244.368 C97.26,246.384 97.036,248.432 97.068,250.448 C95.596,251.6 94.092,252.848 93.036,254.448 C92.364,255.472 91.628,256.624 91.852,258.032 C92.076,258.672 92.588,259.216 93.228,259.504 C93.9,259.792 94.86,259.632 95.468,259.28 Z M93.356,246.768 C93.1,246.672 92.812,246.48 92.748,246.224 C92.588,245.456 92.684,244.752 92.94,244.08 C93.26,243.152 94.124,241.584 94.988,241.008 C95.372,240.752 95.884,240.688 96.332,241.136 C96.524,241.552 96.588,242 96.492,242.48 C96.46,242.832 96.332,243.184 96.204,243.536 C96.076,243.92 95.916,244.272 95.788,244.624 C95.468,245.2 95.116,245.84 94.604,246.32 C94.284,246.64 93.868,246.8 93.356,246.768 Z M93.324,258.32 C93.004,258.064 92.94,257.68 92.908,257.264 C93.036,256.464 93.42,255.76 93.868,255.088 C94.732,253.808 95.788,252.72 97.004,251.696 C97.036,252.432 97.068,253.232 97.036,254 C97.004,254.8 96.876,255.6 96.62,256.304 C96.3,257.264 95.628,258.096 94.54,258.576 C94.092,258.672 93.644,258.576 93.324,258.32 Z M103.916,255.856 C105.484,253.968 106.508,251.408 106.444,249.616 C106.412,248.72 105.9,247.824 104.876,247.952 C104.46,248.016 104.108,248.208 103.852,248.56 C103.596,248.944 103.372,249.456 103.436,249.936 C103.5,250.352 103.724,250.64 104.172,250.704 C104.492,250.736 104.844,250.64 105.196,250.608 C105.356,251.856 104.204,254.544 103.564,255.632 C103.564,255.792 103.756,255.952 103.916,255.856 Z M141.836,253.136 C142.092,253.008 142.22,252.848 142.316,252.656 L142.54,252.144 C144.3,250.096 145.932,248.72 148.428,247.088 C148.444,247.408 148.444,247.912 148.444,248.376 L148.444373,248.758694 C148.445306,249.060735 148.448571,249.309714 148.46,249.424 C148.492,250.192 148.716,250.896 149.292,251.504 C149.9,251.984 150.604,252.24 151.404,252.08 C152.396,251.888 153.324,251.536 154.22,251.056 C155.148,250.544 156.012,249.904 156.78,249.104 L157.484,248.368 C157.708,248.112 157.964,247.824 158.092,247.504 C158.156,247.28 158.06,247.056 157.804,247.088 C157.004,247.792 156.204,248.496 155.404,249.104 C154.572,249.712 153.74,250.224 152.812,250.576 C151.948,250.928 151.02,251.28 150.38,250.992 C149.996,250.832 149.708,250.352 149.612,249.456 C149.516,248.432 149.484,247.408 149.58,246.416 C151.244,245.488 152.908,244.688 154.7,243.92 C155.116,243.728 155.244,243.504 155.276,243.28 C155.308,243.056 155.212,242.832 154.732,242.64 C153.292,242.096 151.788,241.552 150.252,241.136 C149.868,241.04 149.42,241.136 149.196,241.52 C148.908,242.992 148.652,244.464 148.492,245.936 C146.06,247.44 144.14,248.944 142.252,250.832 C142.252,249.36 142.348,247.888 142.476,246.416 C142.636,244.4 142.86,242.352 142.988,240.336 C142.796,240.016 142.412,239.664 141.868,240.048 C139.596,243.28 137.26,246.256 134.764,249.616 C136.076,246.96 137.356,243.92 138.124,242.256 C139.468,240.048 141.1,237.936 142.956,235.888 C145.068,235.152 147.308,234.672 149.388,233.84 L150.764,233.296 C151.244,233.104 151.66,232.816 151.98,232.336 C152.14,231.92 152.012,231.472 151.788,231.152 C151.276,230.448 150.476,230 149.516,230.064 C146.924,230.992 144.62,232.848 142.604,234.96 C140.652,235.536 138.764,236.272 136.812,236.912 C136.716,236.976 136.62,237.008 136.524,237.04 L136.172,237.136 C135.916,237.2 135.692,237.328 135.628,237.712 C135.884,237.968 136.172,238.128 136.524,238.192 L139.052,237.168 C139.852,236.848 140.652,236.592 141.164,236.464 C139.628,238.224 138.38,239.856 137.356,241.552 C136.012,243.696 135.02,245.968 134.028,248.752 C133.836,249.296 133.708,249.84 133.644,250.448 C133.676,250.768 133.836,251.024 134.092,251.216 C134.444,251.312 134.828,251.184 135.052,250.896 C135.788,249.872 137.516,247.632 137.964,247.024 C138.988,245.616 140.748,243.056 141.836,241.456 C141.484,245.04 141.1,249.104 141.132,252.72 C141.196,252.912 141.324,253.008 141.452,253.04 L141.836,253.136 Z M144.524,234.384 C146.06,232.976 147.724,231.6 149.644,231.024 C150.092,230.992 150.476,231.088 150.796,231.28 C151.052,231.504 151.148,231.792 151.02,232.048 C148.94,233.072 146.732,233.68 144.524,234.384 Z M149.676,245.264 C149.772,244.304 149.932,243.28 150.22,242.352 C150.476,242.192 150.732,242.192 150.988,242.288 C151.276,242.352 151.564,242.48 151.82,242.544 C152.204,242.672 152.588,242.768 152.94,242.896 C153.26,242.96 153.58,243.056 153.868,243.216 C152.396,243.92 151.052,244.528 149.676,245.264 Z M185.1,242.96 C185.228,242.768 185.292,242.384 184.972,242.288 C184.556,242.512 184.14,242.544 183.692,242.544 C183.244,242.544 182.796,242.48 182.316,242.448 C180.588,242 178.988,240.912 177.644,239.664 C178.38,238.608 178.988,237.488 179.468,236.336 C179.628,235.76 179.884,235.216 180.076,234.672 C180.268,234.096 180.396,233.52 180.268,232.88 C180.108,232.432 179.756,232.08 179.34,231.856 C178.764,231.664 178.188,231.728 177.676,231.92 C177.132,232.144 176.62,232.528 176.172,232.88 C176.3,231.984 176.524,231.024 176.236,230.128 C176.076,229.84 175.436,229.648 175.276,230.096 C175.34,230.704 175.34,231.312 175.244,231.952 L174.924,233.808 C174.924,233.968 174.892,234.192 174.86,234.384 C174.86,234.576 174.892,234.8 175.052,234.96 C175.276,235.088 175.5,235.12 175.724,234.96 C176.364,234.16 177.1,233.264 178.028,232.912 C178.412,232.752 178.86,232.72 179.116,233.04 C179.212,233.232 179.276,233.424 179.244,233.648 C178.668,235.536 177.964,237.36 176.844,238.992 C176.364,238.576 175.916,238.096 175.436,237.616 C174.924,237.104 174.444,236.624 173.868,236.24 C173.42,236.112 173.004,235.792 172.524,235.824 C172.172,235.856 171.884,236.336 172.172,236.56 C172.78,236.72 173.292,237.04 173.772,237.424 C174.22,237.808 174.636,238.224 175.052,238.672 C175.436,239.088 175.788,239.504 176.172,239.856 C175.596,240.688 174.86,241.52 174.028,242.16 C173.548,242.544 173.004,242.8 172.396,242.928 C172.204,243.12 172.364,243.408 172.492,243.472 C172.78,243.6 173.004,243.568 173.292,243.504 C174.764,242.992 176.044,241.744 177.004,240.56 C178.252,241.552 179.532,242.544 180.972,243.184 C182.124,243.696 184.044,243.984 185.1,242.96 Z M166.316,246.096 C167.532,244.112 168.748,242.192 170.572,240.528 C170.7,240.272 170.572,239.76 170.188,239.856 C169.356,240.4 168.716,241.072 168.14,241.776 C167.66,242.384 167.212,243.056 166.7,243.696 C166.732,243.344 166.796,242.928 166.86,242.544 C166.892,242.256 166.948,241.968 167.012,241.68 L167.212,240.816 L167.212,240.816 C167.34,240.24 167.468,239.632 167.468,239.024 C167.436,238.736 167.18,238.608 166.988,238.512 C166.86,238.416 166.668,238.416 166.508,238.416 C166.412,238.384 166.316,238.384 166.22,238.384 C167.852,237.136 169.004,235.824 170.028,234.096 C170.348,233.552 170.572,232.912 170.284,232.208 C169.836,231.504 169.132,231.248 168.364,231.248 C167.436,231.216 166.444,231.568 165.772,232.016 C165.036,232.528 164.716,233.296 164.748,234.192 C164.876,234.448 164.972,234.8 165.356,234.736 C165.58,233.936 165.9,233.168 166.572,232.688 L167.308,232.464 L167.692,232.36 C167.82,232.328 167.948,232.304 168.076,232.304 C168.492,232.272 168.876,232.336 169.164,232.624 C169.292,232.816 169.324,233.072 169.26,233.296 C168.332,235.408 166.412,237.36 164.364,238.608 C164.268,238.768 164.268,238.928 164.332,239.056 C164.364,239.184 164.46,239.28 164.524,239.376 C164.716,239.504 164.908,239.504 165.1,239.472 C165.164,239.44 165.26,239.408 165.324,239.408 C165.42,239.376 165.484,239.344 165.548,239.344 C165.9,239.28 166.284,239.28 166.476,239.504 C165.964,241.328 165.676,243.248 165.516,245.2 C165.452,245.424 165.452,245.68 165.58,245.84 C165.74,246.128 166.092,246.224 166.316,246.096 Z M165.228,237.36 C165.42,237.36 165.644,237.072 165.644,236.848 C163.98,235.536 162.764,233.84 161.74,232.208 C161.516,231.856 161.228,231.632 160.876,231.6 C160.62,231.696 160.588,231.888 160.524,232.112 C161.1,233.136 161.708,234.096 162.412,234.96 L162.988,235.664 C163.212,235.92 163.404,236.176 163.628,236.4 C164.076,236.88 164.588,237.264 165.228,237.36 Z M164.012,249.648 C165.9,249.2 167.66,248.048 169.068,246.544 C170.54,244.976 171.628,243.024 172.108,241.168 C172.172,240.976 172.076,240.816 171.948,240.72 C171.788,240.656 171.596,240.688 171.468,240.912 C170.604,243.184 169.164,245.328 167.116,246.96 C166.092,247.792 164.972,248.528 163.628,248.624 C163.084,248.496 162.508,248.336 162.316,247.824 C162.06,247.152 162.028,246.416 162.124,245.68 C162.22,245.04 162.38,244.496 162.636,244.016 C162.924,243.536 163.244,243.088 163.564,242.64 C163.692,242.448 163.596,242.288 163.468,242.224 C163.34,242.16 163.18,242.128 163.02,242.224 C162.028,243.024 161.292,244.272 161.068,245.456 C160.908,246.352 160.972,247.28 161.26,248.208 C161.836,249.296 162.892,249.648 164.012,249.648 Z M177.036,253.392 C178.092,252.528 179.148,251.824 180.268,251.184 C181.356,250.544 182.508,249.968 183.66,249.392 C183.852,249.104 183.532,248.72 183.212,248.784 C182.7,248.88 182.22,249.104 181.772,249.328 C181.42,249.52 181.068,249.712 180.716,249.872 C181.036,249.264 181.324,248.688 181.196,247.984 C181.068,247.376 180.428,246.992 179.884,246.864 C178.956,246.832 178.06,246.992 177.292,247.376 C176.492,247.76 175.788,248.336 175.244,249.104 C174.86,248.24 174.444,247.376 174.092,246.48 C174.06,246.384 174.028,246.288 174.028,246.16 L174.028,245.744 C173.996,245.488 173.9,245.168 173.516,245.136 C173.132,245.168 172.876,245.392 172.908,245.776 C173.068,247.216 174.38,249.968 175.212,251.376 C175.596,251.664 175.916,251.216 175.948,250.896 L175.948,250.288 C175.916,250.096 175.948,249.904 176.012,249.776 C176.652,248.752 177.74,248.112 178.892,247.952 C179.244,247.888 179.692,247.824 179.98,248.048 C180.172,248.176 180.204,248.528 180.108,248.72 C179.852,249.36 179.436,249.936 178.892,250.448 C178.124,251.152 177.196,251.792 176.428,252.464 C176.3,252.624 176.204,252.912 176.364,253.072 C176.492,253.264 176.748,253.488 177.036,253.392 Z M194.476,245.776 C194.572,245.744 194.636,245.712 194.7,245.648 L194.86,245.456 C195.02,244.56 195.052,243.696 195.052,242.8 C195.052,241.936 195.052,241.072 195.116,240.208 C197.004,239.568 198.956,239.024 201.036,238.864 C201.132,238.832 201.26,238.832 201.324,238.768 C201.452,238.704 201.516,238.576 201.42,238.384 C200.972,237.968 200.46,237.872 199.948,237.904 C199.244,237.968 198.508,238.192 197.836,238.32 C197.356,238.416 196.876,238.576 196.396,238.736 C195.98,238.864 195.532,238.992 195.116,239.056 C195.102087,238.485565 195.094223,237.576378 195.092408,236.678237 L195.092408,235.882337 C195.094223,235.022306 195.102087,234.278261 195.116,234 C195.116,233.872 195.148,233.872 195.276,233.936 C195.564,234 195.788,234.16 196.076,234.16 C196.268,234.16 196.46,234.064 196.364,233.872 C196.012,233.392 195.468,232.72 195.052,232.24 C194.892,232.048 194.636,231.952 194.412,232.016 C194.188,232.08 193.996,232.304 193.996,232.56 C193.964,235.44 193.932,241.168 193.964,244.048 C193.964,244.4 194.06,245.072 194.124,245.392 L194.188,245.488 C194.188,245.52 194.188,245.552 194.22,245.584 C194.252,245.68 194.316,245.776 194.476,245.776 Z M190.988,250.864 C192.588,250.064 194.188,249.264 195.66,248.208 C197.068,247.216 199.916,245.168 201.292,244.112 L204.652,242.032 C204.844,241.936 205.036,241.808 205.068,241.52 C205.004,241.392 204.908,241.328 204.844,241.328 L204.588,241.264 C203.116,241.744 201.804,242.512 200.524,243.376 C199.148,244.336 196.812,246 195.5,246.96 C194.828,247.312 193.324,248.24 192.556,248.752 C192.332,248.88 192.108,248.976 191.884,249.072 C191.116,249.424 190.38,249.648 189.772,250.256 C189.74,250.48 189.836,250.704 190.06,250.8 C190.316,250.96 190.732,250.928 190.988,250.864 Z M212.332,251.856 C212.652,251.216 212.94,250.256 212.716,249.456 C212.652,249.168 212.492,248.72 212.076,248.624 C211.66,248.56 211.244,248.784 210.988,249.072 C210.412,249.744 210.284,250.8 210.572,251.664 C210.668,251.984 210.956,252.176 211.212,252.304 C211.628,252.4 212.108,252.208 212.332,251.856 Z M221.228,251.856 C221.548,251.216 221.836,250.256 221.612,249.456 C221.548,249.168 221.388,248.72 220.972,248.624 C220.556,248.56 220.14,248.784 219.884,249.072 C219.308,249.744 219.18,250.8 219.468,251.664 C219.564,251.984 219.852,252.176 220.108,252.304 C220.524,252.4 221.004,252.208 221.228,251.856 Z M230.124,251.856 C230.444,251.216 230.732,250.256 230.508,249.456 C230.444,249.168 230.284,248.72 229.868,248.624 C229.452,248.56 229.036,248.784 228.78,249.072 C228.204,249.744 228.076,250.8 228.364,251.664 C228.46,251.984 228.748,252.176 229.004,252.304 C229.42,252.4 229.9,252.208 230.124,251.856 Z"
                id="{折腾⇌迷茫⇌思考]ing，在路上..."
                transform="translate(16.387754, 243.847701) rotate(90.000000) translate(-16.387754, -243.847701) ">
            </path>
        </g>
    </g>
</svg>