<svg height="45" viewBox="0 0 114 45" width="114" xmlns="http://www.w3.org/2000/svg">
  <path
    d="m9.08 35.768c.432-.912 1.104-2.784 1.488-3.696 1.152-2.688 4.08-11.328 5.712-14.976 1.728-3.936 2.928-7.824 4.8-11.52.144-.144.432-.384.768-.384 2.64-.24 5.616.336 8.112 1.296.816.336 1.488.768 1.776 1.68.384.336.816-.192.864-.576 0-.912-.576-1.632-1.2-2.208-3.072-1.632-6.768-2.16-10.512-1.728-.72.384-1.2 1.2-1.392 1.968-.96 2.352-3.312 8.208-3.84 9.552-.528 1.248-2.736 7.248-3.792 9.648-.672 1.536-1.632 4.224-2.688 6.48-.096-.48-.24-1.008-.432-1.296-.624-1.152-1.824-1.968-2.976-2.4.576-.24 1.2-.24 1.728-.624.24-.192.576-.336.816-.528.288-.24.576-.48.672-.864.096-.096.048-.24-.144-.288-.096-.048-.288-.096-.384.048-1.632.912-3.552 1.2-5.472 1.2-.192.048-.336.048-.528 0-.528-.048-1.104-.192-1.488.432-.144.48.048 1.008.432 1.248.72.144 1.488.192 2.208.336.672.144 1.392.288 2.016.576.624.24 1.2.672 1.728 1.344.48.576.672 1.296.624 2.064 0 .624-.144 1.2-.336 1.776 0 .096 0 .24-.048.384 0 .144-.048.288-.048.48 0 .288.048.624.432.816.336.096.816.192 1.104-.24zm17.616 6.288c1.776-.288 4.272-1.392 5.664-2.496.528-.432 1.008-.96 1.344-1.68.144-.864-.144-1.488-.624-2.016-.288-.336-.672-.624-1.008-.96l-.864-.72c2.112-1.392 4.32-2.448 6.576-3.6.24-.384 0-.864-.672-.816l-3.744 1.68c-1.152.528-2.304 1.152-3.456 1.872-.336-.24-.672-.48-1.008-.672-1.104-.576-2.256-1.008-3.216-1.776.912-.816 1.728-1.488 2.496-2.208.816-.72 1.536-1.44 2.256-2.304.48-.576.912-1.2 1.104-1.92.192-.912-.288-1.68-.912-2.208-1.056-.624-2.4-.48-3.504-.192 3.264-2.64 6.24-5.712 7.824-9.36.048-.336-.144-.912-.528-1.056-.48-.336-1.152-.24-1.44 0-.672.528-1.296 1.152-1.968 1.776-.624.624-1.248 1.248-1.92 1.728-.24.096-.576.288-.816.048-.192-.672-.288-1.44-.288-2.16-.048-.768 0-1.536-.096-2.304-.192-.336-.864-.528-1.296-.24-1.056 2.64-2.064 4.992-3.888 7.2l-.384.096c-.384-2.448-.288-4.704-.144-7.104.144-.528.528-.624 1.008-.768l.576-.24c.24-.048.432-.144.672-.288.096-.144.192-.672-.144-.768-1.008.048-2.016.048-2.976 0-.48.24-.72.72-.768 1.248l-.0000039.14746774-.0008482.96741676c-.0024144 1.2553537-.0116696 2.8858112-.0471479 3.2051155 0 1.776.192 3.552.576 5.136.24.576.864.72 1.392.672 1.056-.864 1.824-1.92 2.448-2.976.528-.96 1.008-1.968 1.488-2.928.096.768.288 1.536.48 1.92.288.528.72.96 1.344.96.672-.144 1.248-.48 1.824-.912 1.008-.768 1.824-1.824 2.688-2.736.048-.048.192.048.192.096-.816 1.68-1.968 3.264-3.36 4.704-2.16 2.352-4.896 4.32-7.392 5.904-.432.384-.144 1.056.528 1.2.576-.048 1.104-.288 1.584-.576.432-.288.912-.576 1.44-.72.624-.192 1.296-.48 1.968-.624s1.344-.144 1.92.24c.336.288.24.768.096 1.2-.864 1.2-1.968 2.4-3.168 3.456-.192.336-.528.576-.912.816l-.576.336c-.864.528-1.488 1.104-1.008 2.256.672.672 1.488 1.104 2.304 1.44.72.384 1.488.672 2.112 1.2-.912.576-1.728 1.2-2.496 1.824-.816.672-1.632 1.392-2.496 2.16-.72.624-1.344 1.392-1.248 2.544.192.432.48.72.864 1.008 1.2.48 2.4.48 3.6.288zm-14.592-21.168v-.528c-.048-.096-.048-.24-.144-.336-.432-.768-1.248-1.2-1.968-1.584-.912-.144-1.824-.384-2.688-.528-.912-.144-1.872-.192-2.88-.048-.288.24-.576.576-.432.912.096.24.384.48.576.576l3.072.24c1.008.096 1.92.288 2.832.672.288.048.48.192.72.288.192.144.48.336.912.336zm12.048 19.584c-.144-.096-.192-.192-.144-.336 0-.144.096-.336.144-.432 1.776-1.824 3.648-3.216 5.568-4.608.864.576 1.584 1.344 2.208 2.064.096.528-.096.864-.48 1.152-1.056.912-2.976 1.728-4.368 2.064-.96.24-1.968.288-2.928.096zm35.472-29.088c.192-.576-.384-1.056-.816-1.296l-.336-.192c-2.688-1.008-6-1.344-8.976-.816-.384 0-.96.144-.864.864.096.096.144.144.144.192.192.24.288.48.624.528 2.544-.24 5.52-.336 7.824.432.192 0 .384.096.576.192s.384.192.576.24c.384.192.816.24 1.248-.144zm3.552 25.68c2.304-.192 4.416-.912 6.096-2.4l1.056-.96c.336-.336.624-.768.672-1.296-.096-.384-.432-.48-.72-.48-1.2 1.152-2.448 2.016-3.792 2.592-1.488.672-3.072.96-4.896.912-1.536 0-2.88-.24-4.224-.672-1.728-.528-3.36-1.344-4.992-2.016-1.584-.672-3.216-1.248-5.04-1.344 1.92-1.968 4.128-3.744 6.384-5.472 1.968-1.488 3.984-2.976 5.904-4.704.384-.576.528-1.392.24-2.064-.624-1.344-2.016-1.488-3.168-1.488-2.544.336-4.944.912-7.248 1.776-1.968.72-3.888 1.632-5.712 2.688-.24.096-.576.336-.432.72.288.432.768.72 1.344.624 1.728-1.056 3.504-1.92 5.376-2.592 2.016-.72 4.128-1.2 6.288-1.536.384 0 .768-.096 1.104-.096s.624.048.816.336c.096.384.048.72-.192.912-3.072 2.4-7.92 6.096-12.144 9.936l-.432.48c-.528.432-1.056.912-1.104 1.632.288.72.768.768 1.248.672l.768-.288c.288-.048.528-.096.768 0 2.0945455 0 3.9859835.7870413 5.8589572 1.6779444l.7018602.3376228c.4678107.2265485.9359099.454251 1.4071826.6724328 2.304 1.056 5.28 1.632 8.064 1.44zm35.424 6.048c1.536-.432 3.216-1.44 4.416-2.736.912-1.008 1.632-2.256 1.776-3.6.384-3.072.24-6.048.24-9.264 1.632-1.248 3.696-3.456 4.8-5.808.624.144 1.392.528 1.728.768.144.096.432-.144.528-.384.048-.24.048-.528-.144-.72-.144-.24-.48-.432-.72-.624-.288-.192-.576-.432-.912-.528.384-1.2.432-2.256 0-3.456-.576-1.488-1.824-2.352-3.984-2.592-1.2-.144-3.072-.048-5.616.432 1.776-1.056 4.176-3.072 5.328-4.8.336-.48.432-1.008.144-1.632-.192-.384-.528-.672-1.008-.816-1.008-.048-2.064.048-3.072.096s-1.968 0-2.88-.192c-.528-.144-.912-.24-1.008-.864.336-1.44 1.152-2.928 2.592-3.6.192-.096.432-.096.672-.096.24-.048.48-.144.624-.48-.528-.672-1.344-.816-2.112-.768-1.872.912-2.976 2.928-3.36 4.848-.048.912.432 1.68 1.2 2.16 1.056.384 2.208.48 3.36.48 1.2 0 2.352-.096 3.456-.096.096-.048.096.096.096.192-1.392 2.016-5.808 5.472-7.584 6.144-.672.24-1.488.432-2.064.912-.24.288-.192.768.096 1.008.192.192.528.432.96.384 3.408-1.2 6.336-2.064 10.224-1.824 1.2.048 2.016.672 2.352 1.488.432.912.432 1.536.192 2.544-.384-.192-1.008-.24-1.296-.288-.768-.144-1.68 0-2.832.336-.048-.432 0-.864 0-1.296-.048-.48-.144-.96-.576-1.344-.144-.096-.336-.144-.528-.144-.24-.048-.432.048-.576.384.096 1.056.144 2.256.144 2.928-2.016.624-4.848 2.208-6.48 3.36-.816.576 0 1.488.768 1.44 1.2-.672 2.16-1.296 3.072-1.872.864-.528 1.728-.96 2.688-1.248.096 1.584.144 3.6.144 4.752-1.824 1.104-3.36 1.872-5.328 2.88-.144.24-.096.624.144.816.72.528 1.728.096 2.256-.192 1.152-.576 1.92-1.104 2.928-1.632 0 2.352.048 4.512-.144 6.912-.096 1.392-.336 2.496-1.152 3.456-1.008 1.2-2.208 2.16-3.552 2.64-1.248.48-2.592.624-4.08.288-.192.096-.384.576-.096.72 1.104.72 2.736.96 4.176.528zm-10.608-2.976c1.248-.336 2.544-1.68 3.12-2.976.432-1.536.48-3.12.384-4.752-.096-1.728-.288-3.456-.144-5.232 2.112-3.12 3.216-4.944 4.08-7.344-.048-.672-.864-.96-1.152-.24-.624 1.776-1.632 3.504-2.928 5.232.048-.864 0-2.16-.048-2.496-.192-1.152-.72-2.16-1.92-2.784-.384-.096-.96-.096-1.2.432-.192.384.192.96.672 1.104.952.544 1.0048889 1.6445926 1.0078272 2.6143621l.0001728 1.1296379c-.384-.336-.768-.48-1.248-.528-.768-.048-1.488.096-2.256.288.144-1.872.576-3.696 1.392-5.328.576-1.056 1.344-1.728 2.256-2.112 1.056-.48 2.208-.72 3.312-1.2.336-.72-.192-1.152-.72-1.152-1.056.192-2.016.528-2.976.912l-2.544 1.056c.192-1.2.336-2.496.336-3.792.96-.336 1.872-.528 2.592-.672.096-.048.384.24.24.672-.144.192 0 .384.144.432s.336.096.48-.048l.384-.48c.336-.384.48-.816.336-1.392-.144-.48-.672-.72-1.152-.768-.864.24-2.16.528-2.928.72 0-.96.048-2.16 0-3.264.96-.336 2.688-.912 4.224-1.344.912-.288 2.064-.864 2.4-1.968 0-.336-.432-.528-.672-.336-1.872.864-3.84 1.536-5.856 1.968.048-.72.096-1.488.336-2.112.144-.432.288-.816.672-1.2.384-.528-.24-1.008-.816-.816-.864.336-1.296.96-1.488 1.632-.096.528-.144 1.056-.144 1.584 0 .48-.048.96-.096 1.392-1.536.432-3.072.624-4.704.96-1.104.192-2.208 0-3.312-.24-.432 0-.576.48-.48.768.144.336.384.528.624.672l.768.384c1.296.096 2.496-.048 3.696-.288 1.104-.192 2.208-.48 3.312-.72.048 1.104 0 2.448-.144 3.504-2.064.816-4.176 1.776-6.144 2.832-.576.288-1.056.96-1.152 1.584.096.288.528.48.768.288 2.112-1.152 4.32-2.256 6.576-3.168.096 1.104-.288 3.36-.48 4.032-2.592 1.248-5.184 2.592-7.728 4.032-.144.144-.384.192-.672.24-.24.048-.576.096-.816.24-.432.192-.624.72-.384.96.672.432 1.68.336 2.256 0 .624-.288 2.4-1.296 4.224-2.304 1.632-.912 3.312-1.776 4.416-2.208-1.2 1.872-1.584 4.32-1.92 6.624l-.336.288c-.144.096-.288.192-.432.336-.288.24-.576.48-.72.816-.144.432.336 1.056.816.672l.528-.336c-.144 2.544-.288 5.328-.048 7.824.048.384.384.672.816.624.288-.24.528-.48.576-.816v-.864c0-.288-.048-.624 0-.912.24-.048.576-.192.72-.384 1.248-.864 2.112-2.16 3.168-3.216-.048 1.152.048 2.352.096 3.504.096 1.488.048 2.88-.384 4.176-.48.96-1.488 1.536-2.496 1.824-1.68.432-2.88-.624-3.84-1.824-.432-.48-.816-1.008-1.248-1.44-.336-.192-.816.048-.768.432.576 1.488 1.536 2.64 2.688 3.744 1.104.816 2.736.864 4.08.528zm17.04-14.592c-.048-1.44 0-2.736-.096-4.176.768-.384 1.824-.576 2.496-.48.336.096.912.096 1.056.24-.816 1.584-2.208 3.312-3.456 4.416zm-19.056 5.52c.096-1.632.048-3.216.24-4.8.624-.24 1.344-.432 2.064-.384.528.048.864.096 1.008.528.144.336 0 .912-.144 1.2-.96 1.2-2.064 2.4-3.168 3.456z"
    stroke="#aeaeae" stroke-width="2" /></svg>